<?xml version="1.0" standalone="no"?>
<!DOCTYPE svg PUBLIC "-//W3C//DTD SVG 20010904//EN"
 "http://www.w3.org/TR/2001/REC-SVG-20010904/DTD/svg10.dtd">
<svg version="1.0" xmlns="http://www.w3.org/2000/svg"
 width="1024.000000pt" height="1024.000000pt" viewBox="0 0 1024.000000 1024.000000"
 preserveAspectRatio="xMidYMid meet">

<g transform="translate(0.000000,1024.000000) scale(0.100000,-0.100000)"
fill="ffffff" stroke="none">
<path d="M4097 9089 c-150 -35 -302 -151 -368 -281 l-19 -38 -710 0 -710 0 -6
40 c-5 30 -17 49 -44 73 -20 18 -45 49 -55 70 -10 22 -29 43 -44 49 -14 6 -78
11 -141 11 -138 0 -181 -14 -206 -67 -10 -19 -32 -43 -51 -53 -38 -20 -63 -58
-63 -98 0 -25 -1 -25 -75 -25 -52 0 -77 4 -79 13 -3 6 -7 25 -11 41 -8 35 -98
127 -153 155 -72 37 -146 20 -177 -39 -25 -49 -19 -88 20 -127 33 -33 39 -35
80 -30 50 5 57 -3 23 -25 -44 -29 -91 -83 -114 -133 -22 -46 -24 -63 -24 -220
-1 -182 -8 -239 -27 -241 -7 -1 -24 -2 -38 -2 -21 -2 -25 -7 -25 -32 0 -30 0
-30 -58 -30 -88 0 -102 -14 -102 -104 0 -92 12 -106 93 -106 49 0 57 -3 57
-19 0 -16 -11 -19 -69 -25 -80 -8 -81 -9 -81 -106 0 -84 16 -100 96 -100 48 0
52 -2 59 -27 7 -31 38 -78 72 -111 22 -22 23 -29 23 -155 0 -73 -3 -148 -6
-168 -6 -36 -8 -37 -63 -48 -156 -31 -263 -159 -263 -316 0 -139 84 -256 237
-331 44 -21 83 -43 87 -49 9 -12 11 -634 2 -698 -6 -44 -9 -47 -43 -53 -107
-19 -219 -105 -264 -202 -34 -73 -31 -198 7 -272 37 -72 102 -133 215 -199
l91 -53 0 -378 c0 -208 -3 -385 -6 -394 -5 -12 -21 -16 -70 -16 -76 0 -122
-17 -152 -55 -21 -27 -22 -36 -22 -283 0 -254 0 -255 25 -298 14 -23 39 -54
56 -67 l31 -24 -43 -30 c-66 -45 -131 -121 -165 -188 -26 -53 -29 -69 -28
-145 1 -47 2 -96 1 -110 -6 -172 0 -258 21 -310 28 -71 94 -158 158 -209 48
-38 52 -44 57 -94 10 -98 62 -173 175 -254 37 -26 106 -80 154 -121 l86 -73
-5 -194 c-4 -132 -2 -213 6 -257 17 -88 63 -162 135 -215 48 -36 66 -43 103
-43 29 0 58 8 81 22 30 18 39 20 66 10 18 -7 46 -12 62 -12 40 0 104 39 131
79 22 32 23 43 23 217 0 157 2 184 15 184 12 0 15 -13 15 -55 l0 -55 100 0
100 0 0 -97 c0 -124 -16 -161 -99 -233 -33 -29 -61 -57 -61 -61 0 -5 17 -9 39
-9 51 0 97 32 143 100 42 61 58 124 58 230 0 53 4 69 16 74 27 10 44 7 51 -12
13 -38 46 -62 84 -62 51 0 67 8 85 41 l15 29 134 0 135 0 0 -85 c0 -157 70
-262 187 -281 45 -7 72 3 116 45 51 46 60 77 65 203 l4 118 144 0 144 0 0 -72
c0 -141 33 -221 112 -278 81 -59 175 -45 247 36 47 54 61 104 61 223 l0 91 60
0 60 0 0 -93 c0 -120 18 -183 69 -235 79 -81 201 -81 283 2 49 50 62 92 66
213 l4 112 420 3 420 3 34 37 c31 35 34 43 34 100 l0 62 -225 226 -225 226 1
451 c0 341 -2 457 -12 475 -7 12 -39 59 -73 103 -117 156 -150 174 -310 175
l-109 0 6 116 c4 76 2 125 -6 141 -13 30 -55 53 -95 53 -61 0 -109 -85 -83
-148 7 -16 11 -58 9 -93 l-3 -64 -125 0 -125 0 -6 106 c-5 88 -10 112 -28 138
-27 37 -50 51 -88 51 -67 -1 -70 -43 -4 -54 55 -8 62 -27 59 -144 l-3 -97 -65
-3 c-35 -2 -75 0 -89 3 l-24 6 6 111 c3 60 2 121 -3 134 -13 32 -50 54 -95 56
-31 1 -43 -4 -67 -31 -25 -28 -29 -40 -27 -82 2 -28 6 -52 9 -54 4 -3 3 -28
-1 -56 -5 -28 -7 -57 -6 -63 1 -7 -34 -13 -103 -17 -58 -4 -105 -6 -105 -5 0
0 1 238 3 527 l4 526 48 0 48 0 4 -221 c3 -239 7 -256 64 -309 89 -83 242 -31
273 91 5 20 12 127 15 237 3 110 6 201 6 203 0 1 156 2 346 2 l346 0 34 34 34
34 0 347 c0 236 -4 353 -11 368 -6 12 -7 18 -1 12 5 -5 42 -91 82 -190 39 -99
87 -213 106 -255 39 -83 257 -624 499 -1235 87 -220 173 -436 191 -480 l33
-80 -25 -30 c-80 -97 -113 -244 -80 -357 18 -61 80 -154 161 -238 40 -42 57
-68 69 -111 32 -114 148 -204 274 -213 65 -4 90 -18 207 -119 l40 -35 -2 -96
c-4 -133 -28 -176 -101 -176 -60 0 -92 63 -92 185 0 46 -3 90 -6 99 -8 21 -50
21 -58 0 -12 -30 -6 -181 9 -230 33 -112 141 -157 233 -97 56 37 80 87 88 190
l7 82 78 -72 79 -72 0 -175 c0 -151 -3 -182 -20 -228 -25 -65 -25 -115 -1
-169 42 -91 155 -99 233 -16 62 66 87 158 88 331 l0 72 74 0 73 0 5 -72 c11
-174 136 -285 328 -295 70 -4 74 -3 55 12 -27 22 -101 60 -150 75 -100 32
-154 104 -163 216 l-5 64 87 0 c47 0 89 1 94 3 4 1 10 -39 13 -90 5 -79 10
-99 35 -140 36 -58 111 -117 171 -133 25 -7 69 -10 103 -7 119 10 222 83 276
193 l29 59 3 323 3 322 -24 0 -24 0 -6 -212 c-4 -116 -7 -255 -7 -308 0 -87
-3 -103 -30 -156 -36 -72 -68 -107 -123 -135 -51 -27 -151 -36 -202 -19 -47
16 -114 75 -132 117 -14 35 -19 233 -5 233 20 0 59 91 222 515 132 344 178
460 292 745 65 162 132 329 148 370 71 184 710 1778 722 1799 12 22 19 24 73
22 272 -10 494 227 453 484 -16 105 -66 189 -162 276 l-40 36 31 74 c18 41
120 292 227 559 107 267 226 564 266 660 134 329 339 846 345 873 16 62 -14
102 -243 328 -119 119 -233 238 -252 264 -19 27 -57 63 -84 80 l-49 30 -251 3
c-140 2 -255 7 -262 13 -7 6 -10 33 -6 79 4 66 4 70 -26 99 -41 41 -80 41
-126 0 -33 -29 -35 -34 -38 -102 l-3 -72 -67 -3 -68 -3 0 76 c0 71 -2 79 -29
106 -33 33 -67 37 -111 14 -41 -21 -50 -43 -50 -124 0 -38 -4 -73 -10 -76 -6
-4 -10 24 -10 76 0 76 -2 85 -27 111 -33 34 -79 37 -117 7 -37 -29 -53 -66
-62 -137 l-7 -62 -132 0 c-128 0 -134 -1 -194 -31 -73 -37 -131 -103 -156
-179 -9 -27 -18 -50 -19 -50 -2 0 -18 7 -36 16 -27 14 -39 15 -71 5 -47 -14
-71 -48 -73 -101 -1 -47 23 -76 107 -127 57 -36 64 -46 49 -71 -7 -9 -13 -7
-28 9 -10 12 -38 32 -61 46 -54 31 -93 25 -128 -21 -39 -51 -29 -122 21 -145
19 -8 24 -18 24 -47 0 -27 7 -42 29 -61 l28 -25 -74 -182 c-41 -99 -77 -189
-80 -199 -3 -10 -39 -34 -82 -54 -139 -66 -238 -196 -261 -343 -10 -69 -2
-146 24 -232 l13 -46 -46 -13 c-85 -22 -147 -58 -200 -114 -76 -80 -96 -130
-96 -240 0 -80 3 -96 30 -149 19 -37 51 -78 89 -111 l59 -53 -31 -74 c-17 -40
-78 -190 -136 -333 -57 -143 -121 -298 -141 -345 -21 -47 -54 -126 -75 -176
-60 -145 -48 -147 -130 15 -68 137 -108 223 -260 567 -36 82 -81 171 -98 197
-18 25 -87 104 -155 176 -67 71 -136 149 -152 173 -17 23 -51 56 -75 73 -42
28 -53 30 -147 33 -72 3 -105 8 -114 18 -6 8 -29 14 -50 14 l-39 0 0 245 0
245 341 0 c298 0 345 2 376 17 63 30 63 25 63 598 0 457 -2 520 -16 548 -24
47 -462 485 -509 509 -22 11 -68 23 -102 26 -62 5 -63 5 -63 34 0 35 -48 88
-80 88 -50 0 -92 -44 -102 -105 -2 -15 -12 -21 -36 -23 -28 -3 -39 3 -65 34
-62 73 -97 102 -144 120 -27 10 -70 36 -98 59 -62 53 -154 99 -223 114 -62 13
-180 13 -235 0z m265 -70 c107 -36 202 -118 252 -218 26 -50 35 -98 17 -87 -5
4 -12 0 -14 -6 -3 -8 -6 -5 -6 6 -2 30 -62 134 -102 176 -89 91 -188 126 -333
117 -163 -11 -288 -93 -358 -235 -30 -61 -33 -74 -33 -162 0 -88 3 -101 33
-162 74 -151 234 -235 398 -209 93 14 163 50 235 121 58 55 64 60 72 42 13
-28 -15 -66 -85 -118 -83 -61 -171 -88 -283 -88 -79 -1 -98 3 -155 29 -36 17
-85 45 -108 63 -59 45 -63 35 -8 -16 68 -63 154 -102 222 -102 50 0 55 -2 43
-16 -11 -13 -9 -15 17 -9 28 5 28 5 4 -5 -34 -15 -123 1 -200 36 -66 29 -154
114 -188 179 -118 233 -25 517 206 634 80 40 118 49 225 50 64 1 104 -5 149
-20z m8 -80 c64 -34 129 -99 160 -160 36 -69 50 -219 21 -219 -5 0 -12 28 -16
63 -11 90 -40 159 -92 218 -57 63 -101 91 -184 118 l-64 22 57 -5 c39 -3 77
-15 118 -37z m-2498 -63 c-2 -47 -7 -86 -11 -86 -13 0 -21 164 -8 172 20 12
22 1 19 -86z m81 42 c-5 -62 -9 -78 -20 -78 -4 0 -8 29 -8 65 0 53 3 65 16 65
13 0 15 -9 12 -52z m81 0 c-7 -63 -11 -78 -21 -78 -4 0 -8 29 -8 65 0 54 3 65
17 65 15 0 16 -8 12 -52z m84 -45 l-3 -98 -94 0 -94 0 -1 28 -2 27 83 0 83 0
0 70 c0 56 3 70 15 70 13 0 15 -15 13 -97z m-788 47 c12 -22 -23 -80 -48 -80
-30 0 -55 35 -48 65 11 43 75 53 96 15z m2967 -18 c64 -33 112 -80 139 -136
18 -36 20 -44 7 -28 l-19 23 -2 -53 c-7 -159 -71 -263 -189 -308 -50 -19 -65
-21 -114 -12 -30 6 -76 20 -102 32 -26 13 -50 20 -53 18 -20 -21 66 -78 117
-78 13 0 31 -5 39 -10 11 -7 2 -9 -28 -6 -30 2 -40 0 -33 -8 6 -8 2 -11 -14
-11 -13 0 -21 3 -18 8 2 4 -7 7 -22 7 -34 0 -103 69 -135 135 -18 36 -26 71
-28 127 -4 70 -1 83 28 147 39 84 79 124 156 157 51 21 71 24 144 21 63 -2 96
-9 127 -25z m3705 -7 c-2 -11 -10 -27 -17 -35 -10 -11 -13 -45 -11 -130 3
-119 0 -144 -15 -134 -5 3 -9 -2 -9 -10 0 -9 -4 -16 -8 -16 -4 0 -16 -28 -26
-62 -25 -90 -71 -199 -80 -191 -4 4 -4 0 -1 -9 8 -20 -34 -100 -48 -91 -13 8
-24 -12 -48 -92 l-22 -70 -25 53 -25 53 28 62 c170 387 208 482 222 565 17
100 34 135 66 130 16 -2 21 -9 19 -23z m198 -5 c-2 -14 -3 -143 -2 -287 3
-259 2 -263 -18 -263 -13 0 -24 10 -30 26 -6 14 -10 134 -10 267 0 206 2 246
16 265 21 31 51 25 44 -8z m338 7 c2 -9 -4 -24 -12 -33 -13 -12 -15 -36 -13
-121 2 -99 1 -106 -20 -120 l-23 -15 0 137 c0 116 3 141 17 157 20 22 46 20
51 -5z m-7124 -32 c28 -24 31 -34 42 -133 7 -59 13 -134 13 -167 l0 -60 -23
27 c-21 23 -25 41 -30 125 -8 113 -21 172 -42 180 -17 6 -19 53 -1 53 6 0 25
-11 41 -25z m376 -61 c0 -34 -4 -53 -10 -49 -15 9 -12 -38 3 -54 10 -11 9 -12
-1 -7 -9 6 -11 1 -8 -16 3 -12 8 -48 11 -78 9 -88 77 -143 103 -85 17 38 15
50 -6 32 -33 -30 -46 -22 -62 34 -8 26 -5 35 15 55 31 31 59 30 90 0 l25 -25
0 -338 c0 -186 -3 -437 -6 -558 l-7 -220 -62 3 c-34 2 -77 2 -96 0 l-34 -3 30
-17 c22 -12 25 -17 12 -18 -25 0 -73 26 -80 44 -3 8 -7 159 -8 336 -1 256 2
324 12 337 11 12 15 85 18 330 l3 313 25 20 c14 11 27 20 29 20 2 0 4 -25 4
-56z m404 50 c14 -5 16 -29 16 -163 0 -154 -5 -201 -20 -201 -4 0 -11 7 -14
16 -9 23 -20 319 -13 338 7 18 9 18 31 10z m2518 -41 c35 -36 68 -110 67 -148
l-1 -30 -8 27 c-4 15 -29 57 -54 93 -25 35 -50 74 -56 86 -10 18 -9 19 7 11
10 -6 30 -23 45 -39z m302 -11 c0 -12 -1 -105 -2 -207 l-2 -185 -25 0 -25 0 0
204 c0 210 1 218 40 213 9 -1 15 -12 14 -25z m-3346 -101 c8 -5 12 -23 10 -47
l-3 -39 -58 -3 c-54 -3 -58 -1 -67 23 -17 45 -13 63 18 68 49 7 87 7 100 -2z
m1912 4 c0 -3 -13 -40 -29 -83 -16 -42 -34 -94 -41 -115 -10 -33 -15 -38 -38
-35 -45 5 -42 59 8 157 37 74 43 81 70 81 17 0 30 -2 30 -5z m103 -46 c-8 -30
-14 -34 -46 -37 l-36 -3 13 38 c9 25 21 40 37 44 33 8 42 -3 32 -42z m1217 1
c0 -27 -2 -50 -4 -50 -18 0 -36 15 -36 30 0 10 -7 26 -17 35 -14 14 -14 18 -2
26 8 5 24 9 37 9 20 0 22 -5 22 -50z m-3536 24 c12 -32 5 -60 -22 -89 -42 -45
-51 -79 -43 -181 4 -49 7 -123 7 -164 l-1 -75 -37 -3 -38 -3 0 193 c0 182 2
196 24 244 34 73 95 117 110 78z m746 -24 l0 -40 -42 0 c-37 0 -46 5 -65 33
-13 18 -23 36 -23 40 0 4 29 7 65 7 l65 0 0 -40z m1350 35 c0 -3 -9 -24 -20
-45 l-20 -40 -107 0 c-76 0 -120 5 -151 17 -38 14 -50 15 -86 3 -44 -14 -689
-27 -753 -15 -31 5 -33 9 -33 45 l0 40 585 0 c322 0 585 -2 585 -5z m1771 -18
c19 -12 45 -43 59 -67 l25 -45 -2 -370 c-2 -315 -5 -375 -19 -406 -14 -33 -19
-36 -43 -29 -20 5 -25 12 -24 31 2 13 3 191 3 394 0 425 3 409 -89 434 -48 13
-51 16 -51 47 l0 34 54 0 c39 0 62 -6 87 -23z m2619 18 c0 -2 -7 -22 -15 -42
l-15 -38 -78 3 c-44 2 -97 -2 -122 -9 -25 -7 -48 -12 -52 -11 -11 3 -56 -78
-74 -132 -17 -50 -31 -57 -59 -26 -13 15 -16 28 -10 57 17 94 87 174 168 193
35 9 257 13 257 5z m560 -35 l0 -40 -65 0 -65 0 0 40 0 40 65 0 65 0 0 -40z
m701 29 c19 -7 49 -26 68 -43 73 -68 81 -151 27 -296 -78 -212 -80 -214 -118
-168 -25 28 -23 39 17 127 19 42 41 103 49 135 15 55 14 62 -3 102 -11 23 -17
45 -14 47 3 3 -9 13 -26 22 -36 18 -79 19 -231 8 -120 -9 -123 -13 -71 -88 72
-103 20 -64 -90 68 -17 20 -37 30 -67 34 -38 5 -42 8 -42 34 l0 29 234 0 c147
0 246 -4 267 -11z m-1034 -46 c-3 -10 -5 -4 -5 12 0 17 2 24 5 18 2 -7 2 -21
0 -30z m-3430 -25 c-3 -7 -5 -2 -5 12 0 14 2 19 5 13 2 -7 2 -19 0 -25z m-20
-55 c-2 -16 -4 -3 -4 27 0 30 2 43 4 28 2 -16 2 -40 0 -55z m-1467 17 c8 -16
7 -24 -5 -36 -8 -8 -15 -13 -15 -10 0 3 -13 0 -30 -5 -16 -6 -27 -15 -24 -20
3 -5 -2 -9 -10 -9 -21 0 -31 46 -17 76 21 47 77 49 101 4z m5494 6 c91 -28
167 -113 161 -181 -1 -16 -3 -43 -3 -59 -2 -22 -6 -27 -18 -22 -14 5 -15 4 -5
-8 9 -11 10 -20 2 -35 -14 -26 -14 -34 1 -25 32 20 -40 -61 -75 -84 -36 -24
-50 -27 -123 -27 -75 0 -86 3 -125 30 -24 17 -57 53 -74 80 -56 91 -34 226 48
289 73 55 129 67 211 42z m-224 -3 c0 -5 -4 -15 -10 -23 -11 -18 -25 -7 -17
15 6 15 27 21 27 8z m616 -33 c42 -21 75 -62 61 -76 -3 -3 -18 3 -34 13 -41
29 -55 31 -75 11 -28 -28 -72 -23 -102 13 -14 17 -23 35 -20 41 21 33 98 32
170 -2z m-7378 -168 c-1 -166 -4 -202 -17 -202 -9 0 -8 -12 -17 202 l-7 177
21 -6 c21 -5 22 -10 20 -171z m6027 167 c4 -5 18 -14 32 -20 34 -13 27 -44
-11 -44 -17 0 -35 -9 -47 -24 l-19 -23 0 23 c-1 22 -1 23 -11 5 -19 -32 -47
-56 -52 -43 -2 7 -9 2 -16 -11 -9 -17 -9 -22 1 -22 9 0 9 -3 0 -12 -9 -9 -16
-8 -29 5 -17 17 -16 20 11 73 45 86 63 104 101 104 19 0 37 -5 40 -11z m-4963
-8 l27 -6 -64 -66 c-36 -37 -77 -71 -92 -78 -16 -6 -74 -10 -136 -8 -104 2
-110 1 -128 -22 -30 -37 -25 -77 12 -97 61 -31 132 7 146 78 5 28 17 33 46 22
10 -4 14 -14 11 -31 -13 -70 -74 -133 -129 -133 -18 0 -35 -5 -37 -11 -3 -9
-13 -9 -39 0 -80 26 -119 112 -81 181 27 48 90 80 161 80 96 1 132 13 177 58
43 43 62 48 126 33z m268 -16 c0 -22 -4 -25 -37 -24 -56 1 -151 14 -159 21
-18 19 15 28 102 28 94 0 94 0 94 -25z m398 3 c-3 -22 -7 -23 -95 -23 -51 0
-93 3 -93 7 0 33 14 38 102 38 87 0 89 -1 86 -22z m4937 -32 c-4 -23 -10 -97
-13 -166 -6 -108 -10 -129 -30 -157 -13 -18 -26 -32 -30 -31 -4 1 -20 -4 -35
-10 -48 -20 -120 -15 -158 11 -46 31 -63 83 -54 166 8 82 19 106 34 71 5 -14
13 -51 16 -83 7 -64 37 -109 83 -125 35 -12 85 7 102 37 6 12 14 91 17 176 6
146 7 154 27 157 41 7 49 -2 41 -46z m-4583 -169 c77 -146 251 -265 393 -267
22 -1 58 -5 80 -10 28 -7 10 -8 -64 -4 -174 9 -285 56 -377 158 -86 95 -126
203 -109 293 7 38 7 38 26 -35 10 -40 33 -101 51 -135z m-2182 147 c0 -16 -5
-24 -12 -21 -16 5 -18 29 -3 39 15 11 15 11 15 -18z m1745 7 c-6 -6 -25 -6
-45 -1 l-35 8 45 1 c27 1 40 -3 35 -8z m-424 -33 c16 -12 29 -30 29 -40 0 -22
-4 -22 -35 -2 -13 9 -43 18 -66 20 -54 5 -59 11 -30 35 29 23 58 19 102 -13z
m4493 -32 c107 -64 214 -116 238 -116 9 0 20 5 23 10 10 16 25 12 25 -7 -1
-27 -42 -110 -47 -95 -3 6 -9 12 -15 12 -6 0 -8 -7 -4 -15 6 -16 -17 -14 -71
6 -30 11 -39 29 -11 23 68 -16 65 -11 -12 28 -47 24 -101 54 -120 67 l-35 23
34 -31 c18 -17 28 -31 21 -31 -19 0 -99 53 -105 69 -8 21 3 26 23 10 10 -8 7
-4 -6 9 -18 17 -27 20 -42 12 -15 -8 -21 -6 -30 9 -5 11 -10 28 -10 39 0 48
35 43 144 -22z m-5909 34 c8 -13 -5 -13 -25 0 -13 8 -13 10 2 10 9 0 20 -4 23
-10z m3095 -49 c-11 -21 -30 -37 -30 -25 0 8 30 44 37 44 2 0 -1 -9 -7 -19z
m-1707 -31 c35 -39 37 -97 5 -135 -18 -20 -34 -26 -74 -28 -72 -5 -104 25
-104 96 0 94 109 137 173 67z m396 34 c17 -4 45 -19 61 -34 32 -30 40 -70 15
-70 -9 0 -15 -10 -16 -22 0 -13 -3 -17 -6 -10 -8 20 -19 14 -21 -14 -5 -66
-78 -106 -139 -77 -47 22 -57 39 -56 93 1 58 26 104 67 124 35 17 49 19 95 10z
m5821 -2 c0 -14 -11 -21 -26 -15 -21 8 -17 23 6 23 11 0 20 -4 20 -8z m-7542
-36 c20 -19 22 -28 16 -66 -4 -25 -17 -54 -30 -67 -50 -50 -134 -11 -134 62 0
48 15 74 53 90 38 16 63 11 95 -19z m3590 -23 c2 -9 -7 -13 -27 -13 l-31 0 0
-210 0 -210 -60 0 -60 0 0 100 0 100 -25 0 c-25 0 -25 0 -25 -93 0 -52 -2 -96
-5 -99 -3 -3 -16 -3 -29 -1 -23 5 -23 7 -30 168 -3 90 -3 189 0 219 l7 57 140
-3 c101 -2 142 -6 145 -15z m3851 -57 c-1 -17 -2 -16 -9 6 -4 14 -11 32 -15
40 -3 7 1 4 9 -6 9 -11 16 -29 15 -40z m-6784 -6 c0 -23 -4 -25 -52 -28 l-53
-3 0 31 0 31 53 -3 c48 -3 52 -5 52 -28z m1368 23 c-7 -2 -19 -2 -25 0 -7 3
-2 5 12 5 14 0 19 -2 13 -5z m-513 -7 c0 -2 -11 -6 -25 -8 -14 -3 -25 -1 -25
3 0 5 11 9 25 9 14 0 25 -2 25 -4z m604 -37 c13 -27 13 -31 0 -36 -19 -7 -31
4 -39 40 -10 39 19 36 39 -4z m-78 13 c6 -4 16 -16 22 -27 9 -18 7 -21 -21
-32 -18 -6 -24 -12 -14 -12 20 -1 23 -27 3 -34 -23 -9 -56 22 -56 53 0 44 36
72 66 52z m4614 -7 c17 -20 8 -50 -15 -50 -15 0 -21 8 -23 33 -4 35 16 44 38
17z m-953 -61 c3 -8 33 -29 66 -46 34 -17 79 -41 100 -55 l38 -24 35 30 c41
36 71 46 119 37 61 -12 98 -91 75 -160 -17 -53 -48 -69 -117 -64 -50 4 -61 9
-87 40 -28 32 -65 58 -81 58 -4 0 3 -9 16 -19 13 -11 21 -22 18 -26 -10 -9
-122 50 -163 86 -30 26 -34 33 -26 55 14 35 12 44 -4 38 -21 -8 -65 27 -66 53
0 37 62 34 77 -3z m-4158 -61 c15 -56 75 -104 139 -111 52 -6 75 -22 65 -48
-5 -15 -17 -16 -102 -11 -93 7 -96 8 -133 44 -66 64 -75 150 -20 193 l27 21 6
-23 c4 -13 12 -42 18 -65z m-330 26 c11 -19 10 -25 -12 -48 -13 -14 -31 -35
-40 -46 -9 -11 -44 -54 -79 -96 -35 -42 -70 -86 -78 -98 -13 -21 -33 -46 -59
-77 -22 -27 -39 -163 -21 -174 6 -4 13 -23 17 -43 6 -42 -4 -97 -16 -79 -4 7
-8 -34 -10 -90 -1 -106 -20 -213 -37 -213 -16 0 -23 86 -23 333 -1 184 2 250
13 275 7 18 45 68 85 112 39 44 105 123 147 177 43 53 82 94 88 92 6 -2 17
-14 25 -25z m4705 9 c13 -22 -5 -44 -28 -35 -22 9 -22 60 0 55 9 -2 22 -11 28
-20z m-6006 -5 c-16 -2 -40 -2 -55 0 -16 2 -3 4 27 4 30 0 43 -2 28 -4z m2297
-33 l29 -30 -32 11 c-21 7 -32 18 -32 30 0 25 1 24 35 -11z m-1165 4 c0 -8 -5
-12 -10 -9 -6 4 -8 11 -5 16 9 14 15 11 15 -7z m5320 -125 c-4 -48 -12 -85
-19 -87 -6 -2 -19 -11 -28 -20 -15 -16 -16 -15 -9 13 4 17 11 66 15 110 4 44
14 91 21 105 l14 25 6 -32 c4 -17 4 -69 0 -114z m-5525 111 c8 -13 -35 -13
-55 0 -11 7 -7 10 17 10 17 0 35 -4 38 -10z m834 -58 c-12 -5 -79 46 -79 59 0
5 20 -5 44 -23 24 -18 40 -35 35 -36z m184 33 c-22 -17 -30 -11 -13 10 7 8 17
12 22 9 5 -3 1 -12 -9 -19z m-1775 -237 l2 -247 -232 -3 c-128 -2 -236 -2
-240 0 -5 2 -8 113 -8 247 l0 244 138 3 c75 2 182 3 237 3 l100 0 3 -247z
m2806 217 c-10 -8 -28 -14 -39 -14 -15 0 -13 3 10 14 40 18 53 18 29 0z m3964
-5 c-7 -10 -14 -17 -17 -15 -4 4 18 35 25 35 2 0 -1 -9 -8 -20z m157 -49 c36
-35 64 -66 61 -69 -20 -20 -127 71 -139 119 -8 29 3 22 78 -50z m-6221 28 c25
-20 36 -59 16 -59 -5 0 -10 -9 -10 -19 0 -11 -9 -23 -20 -26 -11 -3 -20 -11
-20 -16 0 -5 -8 -10 -17 -10 -17 -1 -17 -2 0 -6 9 -2 17 -9 17 -14 0 -11 -30
-12 -47 -1 -6 4 -15 21 -19 37 -4 17 -14 35 -21 40 -21 16 -6 63 26 80 37 20
64 18 95 -6z m1446 6 c29 -15 34 -24 44 -86 7 -40 -11 -92 -28 -86 -6 3 -19
-2 -28 -10 -23 -21 -88 -25 -115 -8 -45 30 -54 133 -15 168 40 37 97 46 142
22z m968 -40 c23 -28 29 -74 12 -106 -17 -30 -68 -52 -106 -44 -69 12 -88 102
-34 157 27 26 36 30 68 25 22 -4 46 -17 60 -32z m3407 10 c27 -26 32 -63 15
-111 -8 -22 -21 -32 -50 -42 -56 -17 -76 -15 -100 10 -14 15 -20 35 -20 66 0
87 97 136 155 77z m115 5 c0 -5 -7 -10 -15 -10 -8 0 -15 5 -15 10 0 6 7 10 15
10 8 0 15 -4 15 -10z m-7175 -35 c0 -29 -2 -30 -52 -33 l-53 -3 0 36 0 36 53
-3 c50 -3 52 -4 52 -33z m2355 5 c-12 -16 -29 -30 -39 -30 -10 0 -34 -2 -52
-5 -34 -6 -34 -6 5 9 22 8 48 24 60 35 33 33 51 27 26 -9z m-624 -106 c7 -97
-1 -129 -46 -169 -46 -41 -51 -68 -49 -218 2 -125 0 -142 -14 -145 -30 -6 -39
45 -35 195 3 129 5 144 26 170 68 85 75 102 83 191 4 48 8 89 9 92 0 3 5 -2
10 -11 5 -8 12 -56 16 -105z m-301 96 c-3 -5 -11 -10 -16 -10 -6 0 -7 5 -4 10
3 6 11 10 16 10 6 0 7 -4 4 -10z m1995 -10 c0 -5 -4 -10 -10 -10 -5 0 -10 5
-10 10 0 6 5 10 10 10 6 0 10 -4 10 -10z m3960 -5 c10 -12 10 -15 -4 -15 -9 0
-16 7 -16 15 0 8 2 15 4 15 2 0 9 -7 16 -15z m-105 -5 c4 -6 -8 -10 -29 -10
-20 0 -36 5 -36 10 0 6 13 10 29 10 17 0 33 -4 36 -10z m-4206 -44 c13 -11 37
-41 52 -66 l29 -44 -22 -13 c-38 -20 -52 -15 -73 29 -11 22 -39 62 -62 88
l-43 47 48 -9 c26 -6 58 -20 71 -32z m-1165 12 c29 -42 14 -74 -27 -59 -31 12
-57 5 -57 -15 0 -8 -4 -14 -10 -14 -16 0 -11 72 7 92 23 25 68 23 87 -4z
m1407 -21 c15 -23 38 -65 52 -93 40 -80 38 -79 231 -79 178 0 252 -8 299 -32
65 -33 26 -40 -213 -41 -96 -1 -208 4 -249 10 -72 11 -74 12 -100 55 -14 24
-49 81 -78 128 -28 46 -49 86 -45 89 3 3 21 6 41 6 31 0 39 -5 62 -43z m4518
4 c35 -25 71 -95 71 -137 0 -44 -40 -116 -79 -141 -79 -53 -163 -14 -181 83
-30 164 77 274 189 195z m-4934 -11 c16 -16 31 -28 33 -25 11 11 32 -19 32
-44 0 -37 -17 -51 -61 -51 -32 0 -42 6 -67 41 -31 42 -32 59 -4 92 21 24 34
22 67 -13z m3331 -6 l35 -27 -21 -22 c-42 -45 -13 -75 76 -75 l44 0 0 -43 0
-44 -69 -2 c-67 -2 -71 -1 -110 35 -36 31 -41 42 -41 78 0 38 32 126 45 126 4
0 22 -12 41 -26z m564 -4 c0 -5 -5 -10 -11 -10 -5 0 -7 5 -4 10 3 6 8 10 11
10 2 0 4 -4 4 -10z m824 1 c3 -4 -1 -16 -8 -27 -10 -13 -33 -20 -87 -25 -103
-11 -245 -10 -304 2 -27 5 -55 10 -62 11 -14 2 -25 26 -17 39 7 11 471 12 478
0z m-6024 -76 c0 -3 -17 -24 -37 -47 l-38 -41 2 -194 c2 -186 1 -193 -17 -193
-19 0 -20 8 -20 163 0 89 5 179 11 200 11 41 99 141 99 112z m502 -23 c8 -8 4
-10 -16 -8 -14 1 -29 5 -32 9 -3 3 -13 3 -22 0 -12 -3 -13 -2 -5 4 17 12 61 9
75 -5z m5500 -51 l3 -49 -65 -6 c-88 -8 -320 -5 -260 3 62 9 -412 17 -652 11
-212 -5 -208 -6 -208 46 0 24 1 24 98 25 53 1 313 5 577 8 264 4 485 8 492 9
7 1 12 -17 15 -47z m-7602 -6 l0 -35 -50 0 -50 0 0 35 0 35 50 0 50 0 0 -35z
m3178 13 c16 -16 16 -80 0 -96 -32 -32 -95 10 -83 56 10 45 56 67 83 40z
m-838 -43 c0 -21 -5 -35 -12 -35 -7 0 -96 -1 -198 -3 -167 -3 -190 -5 -235
-26 -83 -38 -89 -53 -93 -223 -2 -82 -6 -148 -10 -148 -4 1 -22 14 -41 30
l-34 29 6 125 c6 139 22 190 74 239 41 38 86 45 331 46 l212 1 0 -35z m220 5
c0 -18 -7 -33 -18 -39 -15 -8 -89 -15 -129 -12 -14 1 -18 62 -6 74 3 4 39 7
80 7 l73 0 0 -30z m327 16 c4 -3 1 -17 -5 -30 -10 -23 -15 -24 -123 -25 -61
-1 -117 -3 -122 -4 -6 -1 -15 11 -21 26 -8 22 -7 30 4 38 16 11 256 6 267 -5z
m-1639 -223 c-3 -172 -4 -183 -25 -205 -13 -14 -23 -29 -23 -35 0 -13 -38 -48
-45 -41 -3 3 4 22 16 42 19 33 22 55 27 246 4 181 7 210 21 212 27 6 32 -31
29 -219z m4886 183 l26 -34 -26 -46 c-14 -25 -29 -46 -32 -47 -46 -6 -52 -4
-52 10 0 14 50 151 55 151 2 0 14 -15 29 -34z m476 -86 c19 -27 24 -29 65 -23
51 7 59 -6 20 -31 -54 -36 -135 -3 -135 55 0 38 22 38 50 -1z m-401 3 c-5 -31
4 -42 41 -48 22 -4 40 -11 40 -16 0 -12 -5 -11 -51 3 -22 6 -39 17 -39 25 0 7
-5 13 -11 13 -8 0 -8 5 1 15 14 16 21 19 19 8z m203 -10 c25 -22 23 -33 -6
-33 -26 0 -51 24 -41 40 9 15 26 12 47 -7z m-152 -3 c8 -5 11 -10 5 -10 -5 0
-17 5 -25 10 -8 5 -10 10 -5 10 6 0 17 -5 25 -10z m1396 -5 c19 -8 44 -21 57
-30 21 -15 17 -15 -55 -9 -56 5 -82 3 -93 -6 -13 -11 -15 -8 -15 18 0 24 5 32
23 35 40 8 47 7 83 -8z m-1126 1 c0 -3 -4 -8 -10 -11 -5 -3 -10 -1 -10 4 0 6
5 11 10 11 6 0 10 -2 10 -4z m410 -6 c0 -5 7 -10 15 -10 10 0 15 -10 15 -34 0
-40 -11 -50 -46 -42 -26 7 -33 41 -14 77 11 20 30 26 30 9z m301 -12 c4 -69
-6 -82 -49 -67 -25 9 -32 17 -32 38 0 35 17 51 52 51 22 0 28 -5 29 -22z m229
9 c-9 -7 -21 -23 -27 -37 l-12 -25 0 32 c-1 31 9 41 39 42 13 0 13 -1 0 -12z
m-415 -69 c33 -15 32 -45 -4 -88 -25 -29 -32 -33 -48 -24 -10 6 -22 23 -27 37
-8 23 -5 31 19 57 33 35 27 33 60 18z m-828 -28 c74 -32 147 -111 171 -187 28
-85 35 -159 22 -218 -26 -115 -117 -247 -190 -274 -19 -7 -44 -17 -54 -23 -32
-17 -140 -22 -197 -8 -30 7 -76 24 -102 38 -159 85 -225 311 -142 487 45 93
160 182 266 205 65 13 170 4 226 -20z m1129 -13 c-9 -44 -25 -58 -60 -55 -25
2 -32 8 -34 30 -5 39 26 66 67 60 31 -4 33 -7 27 -35z m-760 11 c77 -36 130
-125 108 -183 -5 -13 -19 -3 -63 44 -65 67 -112 91 -180 91 -52 0 -71 13 -71
47 0 22 3 23 80 23 61 0 91 -5 126 -22z m608 -14 c13 -5 10 -12 -14 -42 -16
-21 -62 -111 -104 -202 -41 -91 -114 -250 -163 -355 l-89 -190 -37 -3 -38 -3
46 91 c25 50 59 121 76 158 137 301 236 506 255 527 23 25 40 30 68 19z m271
-3 c3 -5 -10 -36 -29 -68 -19 -32 -46 -87 -61 -123 -14 -36 -44 -102 -66 -148
-21 -45 -39 -84 -39 -87 0 -2 -11 -28 -24 -57 -65 -144 -114 -255 -121 -276
-9 -31 -85 -59 -85 -32 0 6 18 47 39 93 22 45 76 163 121 262 178 392 207 445
244 445 8 0 17 -4 21 -9z m-545 -7 c0 -3 -14 -19 -31 -37 -34 -35 -50 -67
-129 -257 -29 -69 -82 -186 -118 -260 -35 -74 -75 -159 -88 -187 -19 -44 -27
-53 -49 -53 -38 0 -40 22 -6 81 16 30 82 173 145 319 191 435 171 400 231 400
25 0 45 -2 45 -6z m652 -31 c20 -18 25 -63 6 -63 -20 0 -48 32 -48 57 0 27 16
30 42 6z m188 13 c0 -9 -72 -182 -79 -189 -9 -9 -61 40 -61 59 0 7 12 40 26
73 l27 61 43 0 c24 0 44 -2 44 -4z m-1251 -25 c10 -6 -1 -8 -30 -4 -24 3 -46
7 -48 9 -10 9 65 3 78 -5z m-6308 -114 c1 -63 11 -91 40 -125 17 -19 28 -39
26 -45 -2 -7 -28 -12 -65 -12 l-62 -1 0 141 1 140 29 -33 c20 -21 30 -44 31
-65z m509 43 c0 -22 -4 -40 -10 -40 -5 0 -10 18 -10 40 0 22 5 40 10 40 6 0
10 -18 10 -40z m70 28 c0 -7 3 -23 6 -35 5 -19 2 -23 -16 -23 -18 0 -21 4 -16
23 3 12 6 28 6 35 0 6 5 12 10 12 6 0 10 -6 10 -12z m70 -23 c0 -25 -4 -35
-15 -35 -12 0 -14 7 -9 28 13 53 24 57 24 7z m230 25 c0 -6 -8 -25 -17 -43 -9
-18 -16 -38 -15 -44 2 -7 -1 -13 -7 -13 -5 0 -18 -15 -29 -34 -11 -19 -33 -38
-51 -44 -43 -15 -40 -1 12 61 24 29 54 69 67 89 25 37 40 48 40 28z m-700 -68
c18 -15 20 -21 11 -45 -22 -56 -93 -57 -107 -1 -13 52 50 83 96 46z m163 -3
c8 -13 4 -23 -16 -45 -15 -16 -27 -24 -27 -19 0 6 -4 4 -9 -4 -8 -12 -12 -12
-25 -2 -19 16 -21 62 -4 79 17 17 68 11 81 -9z m5995 -5 c44 -34 63 -78 50
-116 -6 -15 -13 -28 -17 -28 -4 0 -23 34 -44 75 -51 104 -50 115 11 69z
m-4860 -10 c57 -28 105 -93 102 -136 -3 -38 -1 -43 13 -24 13 17 15 16 35 -16
33 -53 51 -113 58 -187 5 -54 2 -77 -16 -125 -43 -114 -190 -231 -190 -151 0
32 -4 31 -40 -5 -17 -17 -30 -27 -30 -23 0 4 -12 -12 -27 -37 -15 -24 -28 -39
-30 -33 -3 7 3 23 12 37 10 14 23 49 29 78 12 53 16 56 48 43 22 -9 96 59 119
110 22 48 24 111 4 184 -12 47 -12 56 1 76 12 18 12 25 3 31 -8 5 -9 3 -4 -6
6 -10 4 -12 -8 -7 -12 4 -14 2 -10 -11 4 -9 -13 1 -38 23 -32 30 -53 41 -74
40 -27 0 -30 -4 -28 -29 2 -28 -16 -56 -36 -56 -5 0 -13 -5 -17 -12 -5 -8 6
-9 40 -5 53 8 55 -7 3 -17 -56 -10 -130 11 -172 50 -35 32 -37 37 -31 75 9 59
30 94 71 119 75 47 139 51 213 14z m-888 -79 c0 -18 -5 -25 -20 -25 -25 0 -27
37 -2 43 9 3 18 5 20 6 1 0 2 -10 2 -24z m-183 -60 c-31 -63 -32 -83 -14 -157
8 -32 13 -94 11 -155 -2 -86 -5 -107 -23 -132 -25 -35 -37 -38 -212 -45 -106
-5 -130 -3 -159 12 -60 31 -69 52 -78 207 -11 171 -7 189 37 193 l33 3 -6 -63
c-4 -35 -8 -97 -9 -139 -2 -66 1 -80 23 -112 13 -20 34 -38 45 -41 11 -3 72
-6 136 -6 104 0 119 2 150 23 61 41 63 149 2 221 -23 28 -25 36 -20 93 7 68
21 103 63 146 19 21 29 26 37 18 8 -8 4 -27 -16 -66z m-224 8 c8 -7 -11 -33
-24 -33 -5 0 -13 9 -19 20 -9 17 -8 20 13 20 13 0 27 -3 30 -7z m675 -13 l222
0 0 -54 0 -54 -147 -1 c-82 0 -161 3 -178 7 -20 6 -43 4 -69 -5 -55 -19 -142
-17 -150 3 -11 28 -6 69 10 93 14 19 23 22 53 17 20 -3 136 -6 259 -6z m291
-77 c-2 -28 -2 -28 -7 -3 l-5 25 -8 -25 -7 -25 -1 28 c-1 18 4 27 14 27 10 0
15 -9 14 -27z m-1279 -47 l0 -44 -57 -18 c-141 -46 -167 -204 -49 -297 52 -41
105 -65 159 -72 113 -16 107 -12 107 -53 0 -60 -8 -65 -80 -52 -83 15 -167 47
-174 66 -4 10 -12 14 -23 10 -10 -4 -14 -4 -10 0 4 4 -6 15 -22 25 -67 41
-110 128 -110 224 -1 72 22 127 72 178 36 35 122 75 165 76 19 1 22 -4 22 -43z
m414 35 c3 -5 3 -22 0 -39 l-6 -29 -119 -2 -119 -2 0 41 0 40 119 0 c66 0 122
-4 125 -9z m216 -33 c0 -15 -28 -8 -34 8 -10 25 4 37 20 17 7 -10 14 -21 14
-25z m2890 -155 c0 -202 7 -246 45 -292 14 -16 25 -31 25 -33 0 -3 -53 -8
-118 -11 -134 -6 -177 -21 -230 -82 -60 -68 -66 -88 -70 -239 -2 -78 1 -164 7
-195 6 -31 48 -148 92 -261 88 -221 170 -443 165 -447 -1 -2 -81 77 -178 175
l-175 177 -5 121 c-4 104 -9 129 -32 179 -37 81 -68 120 -124 152 -40 24 -62
29 -142 33 l-95 5 -5 145 c-4 129 -8 149 -28 182 -59 95 -212 103 -344 19 -35
-22 -48 -37 -48 -53 0 -17 3 -19 9 -9 5 7 14 10 20 7 6 -4 36 4 67 18 43 20
73 26 124 26 61 0 71 -3 99 -29 l31 -29 0 -141 0 -141 -185 0 -185 0 0 455 0
455 640 0 640 0 0 -187z m235 -5 c4 -106 5 -222 3 -258 l-3 -65 -30 3 c-42 5
-94 47 -116 96 -16 35 -19 67 -19 229 l0 187 79 0 79 0 7 -192z m-2393 165
c13 -12 18 -30 18 -70 0 -58 17 -110 43 -132 19 -15 23 -46 7 -56 -14 -8 -81
29 -108 60 -18 20 -29 25 -48 21 -17 -5 -24 -2 -24 9 0 9 9 15 25 15 24 0 25
3 25 63 0 105 18 130 62 90z m-617 -53 c26 -10 27 -13 23 -73 -3 -56 -6 -62
-27 -65 -47 -7 -70 6 -81 47 -5 21 -8 46 -5 55 3 9 7 23 10 31 5 17 42 20 80
5z m488 -16 c9 -3 22 -14 27 -25 10 -19 5 -19 -230 -19 -254 0 -263 2 -246 46
6 15 28 16 219 9 116 -3 220 -9 230 -11z m-860 -40 c28 -5 37 -11 35 -23 -2
-9 -13 -16 -25 -15 -12 0 -20 -3 -17 -8 3 -4 -20 -8 -51 -8 -57 0 -74 12 -61
45 6 16 53 19 119 9z m1124 -76 c-2 -13 -4 -3 -4 22 0 25 2 35 4 23 2 -13 2
-33 0 -45z m-1494 -30 c7 -82 1 -158 -12 -158 -3 0 -24 12 -45 26 -81 55 -87
167 -11 200 58 25 61 22 68 -68z m1222 52 c3 -6 4 -18 1 -28 -5 -14 -14 -17
-40 -14 -18 2 -37 -1 -40 -7 -4 -6 -22 -11 -39 -11 -23 0 -28 3 -18 9 10 6
-12 9 -63 9 -42 -1 -72 -4 -65 -9 12 -7 -107 -20 -164 -18 -22 1 -27 6 -24 23
10 58 1 56 232 56 133 0 216 -4 220 -10z m4416 -30 c10 -6 19 -17 19 -25 0
-14 -78 -219 -163 -427 -17 -43 -36 -78 -43 -78 -16 0 -88 80 -109 120 -26 50
-31 138 -11 198 19 56 78 129 132 163 27 16 123 54 152 58 2 1 12 -4 23 -9z
m-5273 -52 c3 -15 -5 -18 -52 -18 -42 0 -56 4 -56 14 0 29 103 32 108 4z
m1146 -14 c28 -28 17 -67 -44 -147 -42 -56 -91 -87 -173 -109 -27 -7 -46 -17
-43 -24 6 -15 -486 -28 -569 -14 -33 5 -100 10 -150 11 -63 0 -84 3 -70 10 20
9 -123 7 -155 -2 -16 -4 -39 65 -26 78 4 5 238 8 520 8 l512 0 43 28 c32 21
49 43 68 85 25 57 49 92 64 92 4 0 15 -7 23 -16z m-760 -20 c13 -13 53 -15
242 -17 141 -1 229 -6 230 -12 2 -5 -1 -17 -6 -25 -8 -13 -42 -15 -208 -15
-145 0 -203 4 -215 13 -12 11 -16 9 -21 -12 -15 -59 -70 -74 -106 -29 -22 29
-22 72 1 100 15 18 64 17 83 -3z m579 -36 c8 -29 1 -38 -29 -38 -20 0 -24 5
-24 30 0 25 4 30 24 30 16 0 26 -7 29 -22z m4423 -42 l20 -31 -20 -45 c-10
-25 -32 -81 -47 -125 -15 -44 -32 -79 -38 -77 -6 1 -11 -2 -11 -8 0 -11 -33
-13 -67 -4 -20 6 -21 8 -8 43 21 61 106 275 118 296 10 19 11 19 21 1 6 -10
20 -32 32 -50z m752 -34 c15 -5 8 -52 -10 -63 -7 -5 -20 -7 -28 -4 -8 2 -27 7
-42 11 -16 3 -28 9 -28 13 0 3 -3 16 -7 29 -6 23 -4 24 48 21 30 -1 60 -4 67
-7z m288 -18 c15 -22 15 -27 3 -35 -20 -13 -29 -11 -23 5 6 16 -55 29 -70 15
-6 -5 4 -9 25 -9 25 0 30 -3 19 -10 -8 -5 -27 -10 -42 -10 -25 0 -28 3 -28 35
l0 35 50 0 c42 0 52 -4 66 -26z m302 -2 c15 -23 15 -23 -24 -16 -33 5 -43 2
-63 -20 -17 -18 -22 -32 -17 -50 9 -38 35 -58 63 -51 16 4 22 2 18 -5 -3 -5
-15 -10 -26 -10 -11 0 -17 -4 -14 -10 14 -23 -29 -7 -55 20 -47 50 -48 132 -3
159 10 6 38 10 62 8 33 -1 47 -8 59 -25z m-1185 -57 c35 -19 84 -53 108 -76
41 -38 132 -109 175 -136 17 -11 16 -12 -11 -12 -32 -1 -130 63 -121 78 7 10
-48 63 -57 56 -4 -3 -5 -2 -2 2 11 14 -79 43 -136 43 -32 0 -59 2 -59 4 0 9
31 76 35 76 2 0 33 -16 68 -35z m-5667 11 c0 0 -1 -20 -4 -43 -7 -71 -42 -52
-42 23 0 32 2 35 23 28 12 -3 22 -7 23 -8z m6039 4 c4 -6 -5 -10 -20 -10 -35
0 -65 -17 -65 -37 0 -13 10 -14 75 -8 l76 7 17 -44 17 -43 5 45 c4 38 9 46 29
48 21 3 23 1 18 -20 -4 -12 -7 -33 -7 -44 0 -24 -25 -33 -117 -41 l-53 -4 0
29 c0 18 -6 32 -16 36 -14 5 -16 1 -11 -28 5 -30 3 -35 -16 -38 -28 -5 -74 17
-87 41 -17 33 -11 71 15 96 20 21 34 25 79 25 30 0 58 -4 61 -10z m785 -23 c0
-14 -35 -39 -44 -30 -3 3 -1 14 5 24 11 21 39 26 39 6z m-5617 -36 c-12 -10
-20 -21 -17 -24 3 -2 -2 -7 -11 -10 -24 -10 -18 10 11 32 33 26 47 27 17 2z
m5041 13 c22 -8 23 -94 2 -94 -19 0 -22 6 -31 58 -7 43 -2 48 29 36z m216 -44
c0 -38 -4 -50 -15 -50 -8 0 -15 3 -16 8 0 4 -2 21 -5 37 -5 38 1 55 21 55 11
0 15 -12 15 -50z m78 -2 c2 -38 0 -48 -12 -48 -20 0 -36 31 -36 70 0 27 3 31
23 28 19 -3 22 -10 25 -50z m-2919 -81 c-2 -149 -8 -182 -33 -182 -18 0 -20
11 -24 144 -4 149 -3 155 38 158 19 2 20 -3 19 -120z m2782 103 c-5 -20 -4
-30 5 -58 6 -23 5 -23 -57 -20 l-64 3 -3 48 -3 48 63 -3 c50 -2 62 -6 59 -18z
m284 -20 c14 -22 25 -43 25 -47 0 -5 -34 -8 -75 -8 l-75 0 0 48 0 47 50 0 c47
0 51 -2 75 -40z m-6498 4 c-3 -3 -12 -4 -19 -1 -8 3 -5 6 6 6 11 1 17 -2 13
-5z m3321 -51 l3 -43 -93 0 c-51 -1 -110 -3 -131 -6 -47 -7 -67 8 -67 52 0 40
7 42 170 40 l115 -1 3 -42z m381 17 c70 -40 115 -111 140 -222 l9 -38 -53 0
-52 0 -7 43 c-8 50 -48 122 -77 137 -11 6 -54 14 -97 18 -75 7 -77 8 -80 35
-7 56 0 60 92 55 62 -4 95 -12 125 -28z m1761 14 c73 -29 73 -44 5 -224 -24
-63 -55 -153 -70 -200 -29 -92 -43 -110 -89 -110 -26 -1 -28 -2 -13 -11 21
-13 22 -29 1 -29 -38 0 -84 33 -104 74 -26 54 -25 72 4 137 13 30 43 106 66
169 55 145 80 187 122 199 18 5 34 10 35 10 2 1 21 -6 43 -15z m-2486 -10 c9
-23 7 -54 -2 -54 -5 0 -28 -16 -51 -37 l-43 -36 4 -156 c3 -132 7 -163 25
-201 41 -89 103 -120 238 -120 42 0 55 -4 72 -24 12 -13 35 -27 52 -31 95 -21
-10 -40 -182 -33 -114 4 -160 15 -122 28 18 6 17 7 -3 12 -12 4 -22 2 -22 -3
0 -23 -83 70 -108 120 -26 54 -27 64 -30 233 -3 169 -3 179 19 218 24 42 54
67 104 87 40 15 42 15 49 -3z m-1875 -68 c-18 -31 -19 -37 -6 -68 29 -68 64
-80 125 -42 39 25 25 106 -21 123 -19 7 -17 9 15 13 21 2 36 2 34 0 -2 -1 9
-16 25 -32 17 -17 29 -39 29 -55 0 -43 -27 -93 -59 -109 -83 -43 -178 5 -188
95 -5 39 -2 48 25 77 39 41 46 41 21 -2z m-1274 -4 c-3 -3 -11 0 -18 7 -9 10
-8 11 6 5 10 -3 15 -9 12 -12z m172 6 c31 -14 141 -85 161 -105 7 -7 18 -13
23 -13 5 0 9 -5 9 -11 0 -8 -5 -8 -15 1 -8 7 -30 14 -47 15 -18 2 -39 3 -46 4
-7 1 -10 6 -6 13 4 6 3 8 -3 5 -8 -5 -146 41 -175 59 -5 3 6 14 24 24 42 22
42 22 75 8z m-315 -30 c18 -18 44 -41 58 -50 24 -17 24 -17 3 -17 -12 -1 -24
-5 -27 -9 -3 -5 -6 -93 -7 -195 -1 -103 -6 -187 -11 -187 -9 0 -4 -87 8 -134
5 -20 3 -27 -4 -22 -8 4 -10 -54 -7 -201 3 -145 1 -203 -6 -193 -9 12 -10 11
-6 -6 3 -16 -2 -25 -18 -32 -13 -6 -26 -8 -29 -5 -10 11 -7 1083 4 1083 5 0
24 -15 42 -32z m960 18 c9 -5 14 -14 11 -22 -9 -24 -382 -19 -440 7 -24 10
-43 21 -43 25 0 9 450 -1 472 -10z m126 -104 l3 -102 -26 0 c-24 0 -25 2 -25
68 0 99 9 144 29 140 13 -3 16 -21 19 -106z m5216 89 c3 -4 3 -11 0 -14 -8 -7
-44 4 -44 14 0 12 37 12 44 0z m-808 -26 c49 -20 39 -39 -24 -43 -54 -3 -61 3
-46 42 8 20 25 20 70 1z m1259 -5 c-3 -5 -13 -10 -21 -10 -8 0 -12 5 -9 10 3
6 13 10 21 10 8 0 12 -4 9 -10z m-6087 -7 c-10 -2 -28 -2 -40 0 -13 2 -5 4 17
4 22 1 32 -1 23 -4z m2676 -8 c15 -12 52 -15 159 -15 133 0 138 -1 135 -20 -3
-18 -13 -20 -118 -25 -165 -7 -200 -13 -200 -36 0 -21 -21 -25 -51 -9 -30 17
-25 63 12 94 35 30 37 30 63 11z m2929 -19 c59 -25 80 -58 80 -126 -1 -48 -6
-67 -26 -93 -32 -43 -107 -79 -174 -84 -53 -4 -56 -3 -93 36 -60 63 -64 145
-9 215 46 59 149 83 222 52z m392 -14 c9 -6 35 -56 35 -67 0 -3 -15 -5 -34 -5
-30 0 -35 4 -41 31 -9 38 14 60 40 41z m118 -37 c5 -22 12 -51 16 -65 8 -27 4
-50 -9 -50 -11 0 -81 141 -74 152 3 5 18 8 32 6 23 -2 28 -10 35 -43z m136 24
c19 -8 22 -14 16 -37 -4 -15 -7 -27 -8 -28 -1 0 -23 1 -49 4 -44 4 -46 5 -50
38 -2 19 -2 37 1 40 6 5 54 -4 90 -17z m-3047 -4 c0 -5 -5 -11 -11 -13 -6 -2
-11 4 -11 13 0 9 5 15 11 13 6 -2 11 -8 11 -13z m98 5 c0 -5 -4 -10 -10 -10
-5 0 -10 5 -10 10 0 6 5 10 10 10 6 0 10 -4 10 -10z m2612 -22 c4 -7 8 -25 8
-40 l0 -27 -60 37 c-32 20 -59 41 -60 46 0 13 102 -2 112 -16z m-112 -45 c34
-32 71 -75 81 -98 23 -51 27 -160 5 -152 -10 4 -18 -3 -23 -19 -6 -19 -9 -11
-10 36 -1 63 -3 67 -113 253 -12 20 -18 37 -13 37 5 0 38 -26 73 -57z m583 45
c34 -16 34 -24 -2 -106 -16 -37 -55 -130 -86 -207 -58 -143 -110 -248 -101
-207 5 29 -1 28 -30 -4 l-24 -25 0 25 c0 13 15 66 34 118 42 118 169 418 176
418 4 0 18 -6 33 -12z m-5713 -13 c6 -8 10 -22 8 -32 -4 -23 -56 -29 -82 -10
-15 11 -17 17 -7 35 14 26 62 30 81 7z m4162 9 c3 -3 -1 -23 -10 -45 -15 -40
-39 -50 -70 -30 -10 6 -7 10 12 15 14 3 26 11 26 16 0 13 -10 12 -40 -5 -38
-22 -50 -18 -50 13 0 16 3 32 7 35 8 8 117 9 125 1z m-5318 -36 c13 -22 -16
-55 -54 -60 -21 -2 -26 2 -28 25 -2 16 2 35 9 43 16 19 59 14 73 -8z m534
-258 c-3 -133 -3 -135 -26 -138 l-24 -4 4 194 c1 106 7 200 13 208 18 27 36
-115 33 -260z m-414 254 c23 -9 20 -27 -4 -21 -11 3 -18 1 -14 -4 3 -5 0 -9
-5 -9 -6 0 -11 2 -11 4 0 2 -3 11 -6 20 -6 17 11 21 40 10z m256 -34 c0 -5 -8
-10 -17 -10 -15 0 -16 2 -3 10 19 12 20 12 20 0z m3190 -140 c0 -93 -4 -150
-10 -150 -5 0 -10 -11 -10 -24 0 -41 -10 -58 -26 -45 -11 9 -14 45 -14 154 l0
143 -31 6 c-17 3 -60 6 -94 6 -81 0 -125 9 -125 26 0 22 55 30 208 33 l102 1
0 -150z m150 105 c0 -50 -16 -65 -69 -65 -31 0 -31 0 -31 55 l0 55 50 0 50 0
0 -45z m2065 -69 c-9 -124 3 -187 46 -246 40 -54 105 -94 188 -115 61 -15 71
-15 111 -1 59 20 63 13 6 -10 -30 -12 -46 -25 -46 -36 0 -14 -9 -18 -37 -19
-32 0 -35 -2 -18 -10 38 -18 -78 2 -120 20 -62 28 -140 105 -172 169 -24 50
-28 69 -28 147 0 75 4 97 24 135 25 47 40 70 48 70 3 0 2 -47 -2 -104z m762
74 c17 -35 -7 -60 -59 -60 -38 0 -44 8 -38 50 6 47 75 54 97 10z m-3412 -20
c21 -41 59 -52 198 -58 125 -5 127 -5 127 -28 0 -24 -1 -24 -114 -24 -63 0
-117 -4 -120 -8 -3 -5 -27 -6 -53 -2 -60 9 -93 45 -93 99 0 21 2 40 5 43 13
13 38 2 50 -22z m855 8 c27 -14 58 -42 78 -71 39 -54 342 -769 342 -805 0 -5
-23 -9 -51 -8 l-51 1 -99 242 c-97 237 -129 342 -98 316 12 -10 17 -8 29 10
12 20 12 21 -3 8 -16 -12 -18 -12 -16 5 0 4 -3 10 -8 13 -16 11 -50 89 -37 84
7 -2 16 -18 19 -35 5 -22 10 -27 18 -19 14 14 -21 64 -49 70 -10 2 -35 14 -56
27 -30 19 -38 31 -38 53 0 16 -6 33 -13 39 -16 14 -96 32 -152 35 -36 2 -40 5
-43 30 l-3 27 93 0 c77 0 102 -4 138 -22z m-3003 -20 c40 -24 73 -76 73 -117
0 -17 -3 -31 -7 -31 -4 0 -29 21 -55 47 l-48 47 0 -40 c0 -49 -35 -108 -68
-112 -31 -5 -38 21 -18 70 9 23 15 42 13 43 -21 16 -67 20 -97 9 -55 -20 -75
-17 -88 11 -18 39 -16 43 31 50 23 4 54 14 69 21 69 35 139 36 195 2z m5727
17 c7 -18 -30 -58 -47 -52 -7 2 -13 18 -15 35 -3 29 -1 32 26 32 18 0 32 -6
36 -15z m-1440 -14 c6 -9 -20 -35 -46 -44 -16 -6 -56 -120 -56 -157 1 -13 -57
-170 -83 -225 -5 -11 -31 -76 -59 -145 -34 -86 -55 -125 -65 -124 -8 1 -15 -2
-15 -7 0 -5 -16 -9 -35 -9 -27 0 -35 4 -35 18 0 9 30 89 66 177 36 88 98 242
137 342 l72 183 57 0 c31 0 59 -4 62 -9z m-5042 -34 c4 -6 12 -4 23 6 19 19
24 20 44 8 11 -7 12 -20 5 -57 -8 -43 -12 -49 -37 -52 -23 -3 -27 0 -27 22 0
23 -4 26 -35 26 -46 0 -115 -28 -115 -47 0 -8 -8 -17 -17 -20 -10 -3 -40 -32
-68 -64 -50 -59 -50 -59 -53 -30 -4 41 49 142 95 180 55 45 163 62 185 28z
m228 -21 c0 -54 -7 -64 -43 -59 -18 3 -39 5 -47 5 -21 1 -30 18 -30 56 l0 32
60 0 60 0 0 -34z m187 -7 c2 -28 -1 -38 -14 -43 -21 -8 -33 10 -33 52 0 29 3
33 21 30 17 -2 23 -11 26 -39z m793 7 c0 -18 -6 -39 -13 -45 -8 -6 -73 -12
-161 -14 -139 -3 -148 -2 -162 17 -8 11 -14 33 -14 48 l0 28 175 0 175 0 0
-34z m390 25 c0 -5 -14 -21 -31 -35 -31 -26 -33 -27 -172 -24 -128 3 -142 5
-145 21 -9 45 -2 47 178 47 95 0 170 -4 170 -9z m747 -19 c51 -27 92 -78 100
-126 5 -31 3 -35 -11 -30 -9 3 -16 10 -16 16 0 5 -5 6 -11 2 -6 -3 -27 9 -47
29 -69 65 -85 69 -271 66 l-166 -4 -3 29 c-2 16 2 33 10 38 7 5 94 7 193 6
163 -3 184 -6 222 -26z m-2567 -7 c-26 -28 -40 -32 -40 -12 0 19 21 37 44 37
18 0 18 -1 -4 -25z m2090 -25 c0 -42 -3 -50 -18 -50 -25 0 -54 33 -47 54 3 9
7 23 10 31 2 8 16 15 30 15 23 0 25 -3 25 -50z m-134 0 c9 -53 50 -84 107 -82
41 2 71 -13 61 -29 -3 -5 0 -8 7 -7 6 2 18 -16 26 -40 18 -52 11 -110 -14
-108 -10 0 -25 -15 -37 -38 -12 -21 -38 -50 -58 -63 -43 -26 -49 -37 -15 -28
20 5 20 5 3 -6 -14 -9 -15 -13 -5 -19 20 -13 -54 -23 -108 -15 -101 15 -170
77 -193 176 -30 125 44 251 171 288 19 5 37 10 41 10 4 1 11 -17 14 -39z
m3272 10 c-7 -11 -15 -15 -17 -9 -2 6 3 15 10 20 20 12 21 11 7 -11z m1412
-35 c14 -17 4 -55 -14 -55 -7 0 -21 9 -31 20 -15 16 -15 22 -5 35 16 19 34 19
50 0z m-5822 -11 c-9 -9 -21 -13 -27 -10 -20 13 -11 26 16 26 25 0 26 -1 11
-16z m-908 -33 c0 -22 -4 -43 -10 -46 -6 -4 -10 12 -10 39 0 25 5 46 10 46 6
0 10 -18 10 -39z m6621 -18 c45 -48 62 -81 55 -108 -9 -37 -54 -35 -61 3 -6
26 -18 53 -56 120 -11 18 -19 35 -19 38 0 10 57 -26 81 -53z m-643 -76 c45
-47 101 -77 144 -77 23 0 29 -3 21 -11 -17 -17 -98 0 -147 32 -31 19 -53 44
-71 78 -31 62 -34 102 -4 51 12 -19 37 -52 57 -73z m-588 18 c0 -86 -54 -195
-97 -195 -9 0 -13 -15 -13 -47 1 -49 17 -79 55 -101 18 -10 17 -11 -11 -12
-42 0 -75 37 -81 92 -3 37 0 48 27 77 16 18 30 41 30 50 0 16 29 113 52 174
15 39 38 17 38 -38z m-4501 10 c38 -27 76 -45 92 -45 33 0 86 42 91 73 3 21 4
21 22 -6 23 -34 13 -48 -58 -84 -39 -20 -59 -24 -93 -19 -50 7 -105 40 -127
77 -37 63 -13 64 73 4z m2381 15 c0 -15 -5 -12 -26 11 -19 22 -19 22 4 10 12
-6 22 -16 22 -21z m278 -2 c-2 -22 -8 -32 -18 -31 -8 1 -50 4 -93 8 -73 6
-107 21 -107 46 0 5 49 9 111 9 l110 0 -3 -32z m252 -7 c0 -45 -20 -71 -55
-71 -29 0 -45 26 -45 74 l0 36 50 0 50 0 0 -39z m268 14 c15 -13 23 -27 19
-32 -5 -4 -62 -10 -128 -11 l-119 -4 0 31 c0 29 1 30 53 33 137 9 146 8 175
-17z m-1566 -26 c-37 -38 -45 -74 -31 -142 14 -66 27 -80 97 -108 60 -23 88
-43 103 -71 8 -15 5 -16 -28 -11 -164 22 -230 95 -221 239 4 60 7 70 36 95 18
16 42 29 53 29 20 0 19 -2 -9 -31z m-2033 -15 c68 -14 24 -63 -69 -76 -241
-32 -240 -32 -262 -118 -30 -121 -22 -164 46 -229 49 -47 47 -61 -9 -62 -69
-2 -70 -3 -70 -32 1 -15 -3 -27 -7 -27 -23 0 -32 69 -36 268 l-4 212 35 35 35
35 155 0 c85 0 169 -3 186 -6z m321 -16 c30 -32 25 -48 -14 -48 -69 0 -118 35
-89 63 16 16 83 6 103 -15z m985 -23 l0 -40 -175 -5 c-173 -6 -176 -5 -220 19
-25 14 -49 24 -55 23 -5 -1 3 9 18 23 l29 25 201 -2 202 -3 0 -40z m3730 -15
c1 -25 -4 -54 -11 -65 -6 -11 -15 -38 -19 -60 -4 -22 -10 -34 -12 -27 -3 7
-17 -5 -33 -31 -28 -45 -50 -60 -74 -51 -19 7 -40 50 -33 68 8 20 55 39 79 33
12 -4 17 2 16 22 0 24 8 50 41 134 18 46 45 32 46 -23z m-4988 8 c-3 -7 -5 -2
-5 12 0 14 2 19 5 13 2 -7 2 -19 0 -25z m1843 16 c0 -9 -7 -14 -17 -12 -25 5
-28 28 -4 28 12 0 21 -6 21 -16z m3930 2 c0 -2 -8 -10 -17 -17 -16 -13 -17
-12 -4 4 13 16 21 21 21 13z m-3721 -65 c21 -12 61 -4 61 12 0 6 3 8 6 4 12
-11 -30 -67 -51 -67 -31 0 -63 27 -70 60 -9 42 5 59 22 27 7 -15 22 -31 32
-36z m-1362 -7 c28 -17 43 -70 31 -105 -16 -47 -54 -74 -105 -74 -38 0 -49 5
-74 33 -85 95 38 217 148 146z m-1207 -19 c0 -19 -4 -35 -10 -35 -5 0 -10 16
-10 35 0 19 5 35 10 35 6 0 10 -16 10 -35z m641 25 c30 -6 63 -19 73 -30 22
-21 15 -40 -8 -21 -10 8 -35 9 -92 3 -61 -7 -69 -10 -33 -11 51 -1 60 -6 52
-27 -7 -18 -73 -19 -73 -1 0 9 -2 9 -9 -1 -4 -8 -12 -12 -17 -10 -5 1 -10 -6
-12 -17 -3 -16 -1 -17 7 -5 9 12 11 9 11 -13 0 -17 7 -30 18 -34 9 -4 20 -11
24 -17 5 -8 14 -7 28 2 18 11 20 10 20 -11 0 -18 -5 -23 -22 -23 -18 1 -24 -5
-26 -26 -3 -22 2 -30 23 -38 32 -12 25 -29 -10 -22 -14 2 -32 -1 -40 -8 -8 -6
-19 -9 -24 -5 -7 4 -9 -4 -5 -23 5 -22 2 -31 -13 -37 -23 -10 -47 -12 -53 -4
-3 4 -27 3 -55 -2 -68 -11 -105 -11 -105 0 0 5 24 22 53 39 88 50 91 55 95
197 3 76 9 128 16 134 26 21 98 26 177 11z m6898 -42 c24 -24 55 -65 70 -93
23 -44 26 -61 26 -150 0 -87 -3 -106 -25 -149 -35 -69 -124 -148 -196 -174
-69 -25 -153 -36 -173 -23 -10 7 10 68 102 302 64 162 119 302 123 312 10 26
26 21 73 -25z m-1858 5 c13 -16 12 -17 -3 -4 -10 7 -18 15 -18 17 0 8 8 3 21
-13z m-2463 -58 c20 -23 61 -102 76 -148 8 -24 -53 -63 -70 -44 -10 11 -104
237 -104 251 0 13 75 -33 98 -59z m-2821 38 c12 -5 14 -26 11 -114 -3 -124
-11 -137 -99 -170 -45 -17 -52 -18 -73 -4 -35 23 -76 87 -83 129 -7 42 17 114
47 141 34 31 139 40 197 18z m478 -3 c9 -10 15 -26 12 -33 -6 -15 -85 -39 -99
-31 -10 6 -11 68 -1 77 14 15 70 6 88 -13z m638 -10 c32 0 37 -3 37 -24 0 -42
-9 -53 -40 -48 -16 2 -38 1 -47 -3 -10 -5 -24 -7 -31 -6 -8 1 -16 -7 -19 -18
-3 -12 -9 -18 -14 -15 -5 3 -6 11 -2 17 4 6 6 26 4 43 -3 38 23 68 53 60 12
-3 38 -6 59 -6z m287 -9 c0 -5 14 -22 30 -38 37 -34 37 -41 5 -38 -14 2 -28
-1 -31 -7 -7 -12 -184 -8 -184 5 0 4 -4 6 -9 3 -12 -8 -23 41 -16 65 6 17 17
19 106 19 54 0 99 -4 99 -9z m-823 -28 c4 -12 -40 -11 -49 2 -4 5 -5 12 -2 17
6 9 47 -6 51 -19z m5363 23 c0 -2 -8 -10 -17 -17 -16 -13 -17 -12 -4 4 13 16
21 21 21 13z m-4140 -25 c0 -12 -20 -25 -27 -18 -7 7 6 27 18 27 5 0 9 -4 9
-9z m1727 3 c-3 -3 -12 -4 -19 -1 -8 3 -5 6 6 6 11 1 17 -2 13 -5z m1773 -10
c0 -8 -4 -12 -10 -9 -5 3 -10 10 -10 16 0 5 5 9 10 9 6 0 10 -7 10 -16z m176
-17 c12 -7 38 -27 59 -45 l37 -33 -27 -29 c-16 -16 -31 -27 -35 -25 -4 3 -7
-6 -7 -19 0 -24 -32 -80 -41 -71 -3 2 -12 0 -19 -7 -11 -9 -16 -9 -22 1 -6 10
-10 9 -14 -3 -4 -9 -11 -16 -17 -16 -6 0 -9 4 -6 9 3 4 -7 13 -22 20 -25 11
-26 10 -8 -4 18 -13 18 -15 2 -15 -24 0 -62 44 -70 81 -8 40 8 101 31 121 51
45 117 59 159 35z m-5876 -97 c0 -60 -4 -100 -10 -100 -6 0 -10 40 -10 100 0
60 4 100 10 100 6 0 10 -40 10 -100z m6213 83 c-7 -2 -19 -2 -25 0 -7 3 -2 5
12 5 14 0 19 -2 13 -5z m-46 -9 c-3 -3 -12 -4 -19 -1 -8 3 -5 6 6 6 11 1 17
-2 13 -5z m-6387 -54 c0 -26 -3 -30 -29 -30 -44 0 -95 -25 -130 -66 -41 -46
-51 -73 -51 -132 1 -92 54 -163 161 -214 56 -26 67 -57 22 -59 l-28 -2 28 -4
c15 -2 27 -11 27 -19 0 -20 -128 45 -179 91 -21 20 -50 62 -66 96 -23 53 -27
71 -22 121 12 130 124 246 240 248 23 0 27 -4 27 -30z m3599 7 c14 4 14 3 1
-6 -21 -15 -27 -14 -35 7 -5 13 -3 14 6 5 6 -6 19 -9 28 -6z m768 -22 c33 -6
67 -44 41 -46 -7 0 -92 -2 -190 -4 -97 -1 -194 -6 -217 -10 -36 -6 -41 -4 -42
12 0 16 -1 15 -9 -3 -9 -23 -69 -41 -80 -25 -3 6 -20 6 -45 1 -59 -14 -62 -13
-69 22 -9 48 11 62 97 68 79 5 462 -6 514 -15z m-3169 9 c18 -5 22 -13 22 -45
0 -36 -2 -39 -29 -39 -17 0 -42 11 -59 25 -17 14 -35 25 -40 25 -6 0 -14 5
-17 10 -13 21 71 37 123 24z m375 -24 c-17 -16 -33 -35 -35 -42 -6 -16 -129
-22 -213 -11 -53 7 -60 11 -63 32 l-4 23 139 -3 c134 -3 183 3 183 22 0 5 6 9
13 9 6 0 -2 -13 -20 -30z m1047 10 c-20 -13 -40 -13 -40 0 0 6 12 10 28 10 21
0 24 -2 12 -10z m3726 -26 c22 -15 44 -55 44 -79 0 -8 -9 -24 -20 -35 -12 -12
-18 -26 -14 -32 4 -7 3 -8 -4 -4 -7 4 -12 1 -12 -8 0 -19 -36 -44 -77 -52 -24
-5 -37 0 -66 25 -45 40 -53 75 -31 131 28 71 114 96 180 54z m-3454 -15 c54
-27 95 -72 108 -118 14 -49 13 -55 -9 -75 -21 -19 -29 -12 -50 41 -21 53 -91
110 -145 118 -25 4 -46 11 -46 15 0 5 -9 12 -20 15 -11 3 -20 13 -20 22 0 23
124 11 182 -18z m3806 11 c33 -20 40 -34 22 -45 -11 -7 -100 42 -100 56 0 16
44 10 78 -11z m-4843 -47 c-5 -33 -14 -44 -53 -69 -25 -16 -73 -53 -107 -83
-33 -30 -89 -68 -125 -85 -56 -26 -79 -31 -164 -34 -88 -4 -98 -3 -93 12 4 11
1 16 -12 16 -26 0 -81 20 -81 30 0 5 15 12 33 15 17 4 35 13 39 19 5 7 38 10
94 9 105 -3 143 11 235 89 35 29 81 66 101 82 42 31 118 58 132 46 4 -4 5 -26
1 -47z m676 0 c52 -56 53 -86 2 -44 -31 26 -46 31 -89 31 -37 0 -57 -6 -74
-20 -22 -19 -37 -20 -240 -20 -217 0 -218 0 -224 23 -3 12 -6 35 -6 50 l0 28
296 -3 295 -3 40 -42z m1163 21 c19 -18 30 -59 21 -73 -12 -20 -83 -13 -105
11 -28 30 -25 43 13 62 40 20 52 20 71 0z m1768 -6 c40 -32 24 -88 -26 -88
-41 0 -54 27 -36 74 10 28 36 34 62 14z m103 -34 c33 -22 31 -34 -5 -34 -25 0
-30 4 -30 25 0 29 3 30 35 9z m1058 1 c40 -20 71 -61 62 -83 -3 -9 -6 -19 -6
-22 -1 -3 -4 -9 -9 -15 -4 -5 -11 -28 -15 -50 -6 -34 -13 -43 -49 -61 -39 -20
-46 -20 -82 -8 -21 7 -40 13 -42 13 -25 0 -52 49 -52 96 0 106 102 174 193
130z m-6631 -20 c4 -17 1 -25 -8 -25 -18 0 -18 -9 2 -31 14 -15 15 -30 6 -109
-5 -50 -12 -94 -16 -97 -16 -17 -25 21 -28 119 -2 60 -6 108 -9 108 -3 0 -14
-9 -23 -19 -12 -13 -18 -37 -18 -76 -1 -63 -13 -68 -35 -12 -31 77 18 167 90
167 29 0 35 -4 39 -25z m3567 -7 c8 -18 28 -62 44 -98 42 -95 69 -182 62 -207
-4 -16 3 -31 23 -53 16 -16 41 -61 56 -99 31 -80 73 -126 122 -136 33 -6 34
-8 34 -51 0 -38 -3 -45 -17 -41 -10 3 -36 8 -57 12 -86 14 -126 72 -216 305
-29 74 -74 184 -101 245 -27 60 -49 113 -49 117 0 10 51 37 70 38 8 0 22 -15
29 -32z m-1081 -10 c17 -17 15 -59 -4 -87 -12 -17 -13 -26 -5 -34 18 -18 13
-27 -18 -27 -18 0 -32 7 -36 18 -13 28 -14 42 -4 42 5 0 9 19 9 43 0 31 -3 38
-10 27 -5 -8 -10 -10 -10 -4 0 17 22 34 45 34 12 0 26 -5 33 -12z m1378 -2
c14 -37 -28 -66 -70 -50 -22 8 -21 51 2 57 35 9 63 7 68 -7z m602 -2 c31 -6
28 -32 -5 -40 -15 -4 -133 -4 -263 0 -201 5 -242 4 -266 -9 -45 -23 -54 -19
-54 23 l0 37 283 -3 c155 -1 292 -5 305 -8z m-3428 -9 c-13 -15 -5 -39 11 -30
5 4 9 1 9 -4 0 -6 -9 -11 -20 -11 -16 0 -20 7 -20 30 0 21 5 30 16 30 13 0 14
-3 4 -15z m1795 -10 c27 -26 31 -57 15 -101 -22 -57 -83 -72 -125 -30 -32 32
-40 68 -23 102 26 55 93 70 133 29z m875 -19 c0 -9 -40 -13 -46 -5 -3 5 6 9
20 9 14 0 26 -2 26 -4z m2440 -31 c33 -54 18 -62 -125 -64 -70 -1 -121 2 -124
8 -4 7 -93 7 -266 0 -256 -11 -488 -10 -499 2 -3 3 -1 20 5 37 l11 32 461 1
c384 1 491 5 514 18 1 1 11 -15 23 -34z m-3988 -45 c-5 -47 -14 -55 -51 -42
-26 9 -31 8 -31 -5 0 -12 -6 -14 -27 -8 -52 13 -70 9 -79 -17 -6 -21 -8 -20
-24 17 -16 39 -17 39 -29 17 -9 -16 -21 -22 -46 -22 -18 0 -35 -5 -37 -12 -7
-19 -28 1 -28 25 0 13 7 33 16 46 15 20 23 23 65 19 35 -4 49 -1 53 9 4 10 30
13 113 11 l108 -3 -3 -35z m112 4 c25 -24 19 -42 -16 -57 -18 -8 -37 -16 -42
-18 -16 -7 -29 61 -15 77 15 19 54 18 73 -2z m1768 -16 l173 -2 -115 -8 c-63
-5 -136 -9 -162 -9 -46 -1 -100 20 -114 43 -5 7 4 5 19 -4 22 -15 53 -18 199
-20z m-3776 -4 c35 -17 74 -75 74 -110 0 -13 -3 -14 -15 -4 -12 10 -15 10 -15
0 0 -8 -16 3 -37 23 -30 31 -43 37 -79 37 -35 0 -49 -6 -80 -35 -44 -42 -56
-44 -48 -7 9 40 36 75 75 94 43 22 81 23 125 2z m3545 -31 c34 -36 28 -36 -23
-1 -16 11 -28 24 -28 29 0 18 16 9 51 -28z m-2971 -27 c0 -43 -11 -63 -28 -52
-14 8 -1 96 14 96 10 0 14 -13 14 -44z m80 22 c0 -13 3 -33 6 -45 5 -19 2 -23
-16 -23 -20 0 -22 4 -16 31 3 17 6 38 6 45 0 8 5 14 10 14 6 0 10 -10 10 -22z
m151 -41 c10 -3 19 -11 19 -19 0 -9 -3 -9 -8 -2 -4 6 -19 10 -34 8 -23 -2 -28
1 -28 19 0 18 2 19 10 7 8 -12 10 -8 11 15 2 29 2 29 6 4 2 -16 12 -29 24 -32z
m-313 14 c4 -29 -13 -50 -29 -34 -13 13 -1 65 15 60 6 -2 13 -14 14 -26z
m5665 9 c3 -11 1 -20 -5 -20 -5 0 -40 -28 -76 -63 -91 -87 -123 -107 -184
-117 -29 -4 -61 -11 -70 -15 -11 -4 -20 0 -27 13 -22 42 5 62 85 62 37 0 54 9
144 80 56 44 108 80 115 80 7 0 15 -9 18 -20z m-5885 -39 c2 -23 7 -39 13 -36
9 6 15 -33 10 -65 -8 -49 1 -581 10 -615 15 -56 43 -91 97 -122 69 -39 93 -73
51 -73 -16 0 -20 -4 -15 -17 5 -13 2 -12 -11 4 -16 18 -93 59 -93 48 0 -2 19
-15 43 -29 23 -14 38 -26 33 -26 -19 0 -77 43 -104 78 -16 20 -40 57 -52 82
-23 45 -23 48 -22 423 1 207 4 382 7 388 14 21 30 1 33 -40z m4671 33 c2 -2 0
-15 -3 -29 -5 -18 -12 -25 -24 -21 -9 2 -34 7 -54 11 -27 4 -38 11 -38 24 0
10 3 20 6 24 6 5 105 -2 113 -9z m151 -19 c-14 -17 -80 -20 -80 -4 0 8 12 10
35 6 19 -3 35 -2 35 4 0 5 5 9 11 9 8 0 8 -5 -1 -15z m-1598 -9 c18 -8 45 -17
61 -21 23 -4 27 -10 27 -38 0 -18 -6 -41 -13 -51 -13 -17 -14 -17 -30 -1 -9 9
-17 12 -17 6 0 -6 -5 -11 -11 -11 -6 0 -9 5 -7 11 2 7 -9 24 -24 40 -16 16
-28 38 -28 53 0 30 0 30 42 12z m1875 7 c-20 -2 -52 -2 -70 0 -17 2 0 4 38 4
39 0 53 -2 32 -4z m-5379 -40 c22 -31 24 -60 6 -98 -17 -37 -46 -55 -89 -55
-54 0 -74 65 -30 94 31 20 32 32 4 39 -26 7 -21 28 10 43 28 15 80 2 99 -23z
m4262 -14 c0 -46 -17 -96 -29 -83 -10 10 -22 120 -15 127 3 3 14 3 25 0 15 -4
19 -14 19 -44z m70 36 c14 -17 1 -120 -15 -120 -10 0 -24 104 -17 125 5 14 17
12 32 -5z m154 3 c14 -6 33 -22 42 -35 20 -32 152 -357 154 -381 0 -1 -16 13
-35 32 -19 20 -50 39 -68 44 -37 9 -53 37 -97 165 -27 80 -28 82 -63 85 -37 3
-47 18 -47 75 0 25 3 27 45 27 24 0 55 -5 69 -12z m-314 -58 c0 -45 -4 -62
-15 -67 -22 -8 -23 -6 -31 65 l-7 62 27 0 c25 0 26 -2 26 -60z m-102 27 c2
-10 1 -30 -2 -43 -6 -22 -10 -24 -49 -19 l-42 5 39 -10 c63 -16 55 -20 -35
-19 -63 1 -76 3 -51 9 18 4 35 10 38 13 8 7 -144 0 -208 -10 -46 -8 -55 -7
-47 3 7 9 6 14 -3 20 -7 4 -10 4 -6 -1 11 -11 -20 -38 -37 -31 -8 3 -15 11
-15 18 0 10 2 10 9 0 6 -10 11 -9 22 4 8 10 9 15 2 11 -23 -14 -43 4 -43 39
l0 34 212 -2 c197 -3 213 -4 216 -21z m1700 7 c12 -8 22 -20 22 -26 0 -6 -3
-9 -6 -5 -3 3 -17 2 -30 -3 -14 -6 -55 -14 -92 -20 -119 -18 -178 -46 -251
-120 -71 -71 -81 -83 -102 -121 -45 -81 -52 -172 -20 -267 15 -42 16 -59 8
-64 -45 -29 -96 55 -97 159 -1 199 139 395 330 460 80 28 203 31 238 7z
m-5340 -381 c1 -235 -1 -363 -8 -363 -5 0 -17 11 -26 25 -14 22 -17 70 -20
356 -2 182 -1 335 2 341 3 5 16 8 27 6 l22 -3 3 -362z m355 355 c123 -3 136
-8 137 -51 0 -16 -2 -16 -31 -2 -52 27 -120 30 -172 7 -144 -64 -226 -236
-183 -383 16 -57 41 -86 111 -133 33 -22 51 -26 110 -26 61 0 77 4 117 29 26
17 54 43 62 60 21 40 20 102 -1 147 -12 25 -14 38 -7 41 44 15 48 26 52 177 4
126 7 146 21 146 46 -1 46 0 49 -357 4 -350 -1 -406 -36 -417 -9 -3 -126 -7
-259 -8 -188 -2 -245 0 -255 10 -10 10 -12 92 -10 384 1 204 4 374 6 377 2 3
42 5 88 4 45 -2 136 -4 201 -5z m4121 -4 c30 -30 20 -44 -31 -44 -62 0 -79 10
-64 39 14 26 72 29 95 5z m476 -8 c0 -3 -7 -12 -16 -20 -13 -13 -46 -16 -204
-16 -183 0 -188 1 -183 20 5 19 14 20 204 20 110 0 199 -2 199 -4z m-4185 -16
c3 -5 -1 -10 -9 -10 -9 0 -16 5 -16 10 0 6 4 10 9 10 6 0 13 -4 16 -10z m4543
-63 c3 -23 0 -27 -21 -27 -21 0 -23 4 -19 31 6 38 36 36 40 -4z m516 -9 c-27
-24 -88 -80 -137 -125 -48 -46 -92 -83 -97 -83 -6 0 -10 13 -10 30 0 25 14 42
90 107 100 86 143 113 179 113 21 0 19 -4 -25 -42z m-6409 13 c3 -11 21 -33
40 -50 29 -25 40 -29 70 -24 38 6 45 -2 18 -23 -23 -17 -77 -19 -67 -2 5 7 2
9 -9 5 -28 -10 -77 48 -77 92 0 26 17 27 25 2z m5790 -6 c0 -13 -8 -21 -22
-23 -17 -3 -23 2 -23 16 0 10 3 22 7 26 13 13 38 1 38 -19z m-4805 -1 c33 -13
38 -19 29 -30 -6 -8 -16 -14 -21 -14 -5 0 -18 -9 -30 -20 -16 -15 -25 -17 -35
-9 -10 9 -13 8 -13 -5 0 -9 -4 -16 -10 -16 -5 0 -10 5 -10 11 0 5 -5 7 -10 4
-6 -4 -8 -11 -4 -16 3 -5 0 -8 -8 -7 -8 2 -12 -4 -10 -16 2 -11 -1 -15 -7 -11
-6 3 -14 -2 -18 -12 -4 -10 -13 -24 -20 -31 -7 -8 -11 -17 -8 -22 3 -5 1 -10
-4 -12 -15 -5 -16 -84 -2 -102 19 -23 31 -20 31 9 0 34 25 82 49 95 28 15 97
12 130 -5 61 -31 65 -117 8 -182 -81 -92 -207 -81 -281 24 -25 36 -29 51 -29
110 -1 60 3 77 34 133 28 52 46 72 88 97 29 18 65 34 80 36 14 2 27 5 28 6 2
0 21 -6 43 -15z m4460 -14 c0 -24 -49 -30 -234 -30 -183 0 -196 1 -206 19 -5
11 -10 21 -10 23 0 2 101 2 225 0 130 -2 225 -7 225 -12z m-1661 -75 c45 -49
51 -65 23 -65 -24 0 -56 36 -70 78 -15 44 -2 40 47 -13z m2167 -6 c93 -67 133
-179 103 -286 -19 -71 -86 -134 -172 -162 -64 -22 -69 -22 -121 -7 -130 38
-218 157 -202 273 8 57 49 137 83 161 78 55 105 64 184 59 69 -3 82 -7 125
-38z m-1965 -15 c9 -11 10 -20 2 -32 -12 -20 -29 -17 -25 4 2 8 -4 14 -13 14
-16 0 -20 12 -8 23 11 12 30 8 44 -9z m1378 6 c2 0 -2 -7 -9 -15 -10 -12 -40
-15 -151 -15 -77 0 -139 2 -139 4 0 2 -2 10 -5 18 -4 10 24 13 147 11 84 -2
155 -3 157 -3z m-1279 -10 c0 -5 -4 -10 -10 -10 -5 0 -10 5 -10 10 0 6 5 10
10 10 6 0 10 -4 10 -10z m130 -9 c0 -11 -5 -23 -11 -27 -15 -9 -33 12 -26 30
9 23 37 20 37 -3z m90 9 c0 -5 -4 -10 -10 -10 -5 0 -10 5 -10 10 0 6 5 10 10
10 6 0 10 -4 10 -10z m138 -8 c2 -7 -2 -10 -12 -6 -9 3 -16 11 -16 16 0 13 23
5 28 -10z m78 -9 c-10 -10 -19 5 -10 18 6 11 8 11 12 0 2 -7 1 -15 -2 -18z
m2017 -17 l28 -23 -34 -84 c-19 -46 -40 -101 -47 -121 -6 -21 -15 -40 -20 -43
-12 -8 -60 35 -60 54 0 10 20 67 45 127 25 59 45 110 45 111 0 8 18 0 43 -21z
m-6503 -45 l25 -19 1 -341 2 -341 -44 0 -44 0 0 375 c0 356 1 374 18 360 9 -7
28 -23 42 -34z m140 -156 c0 -159 9 -209 43 -236 18 -15 18 -16 1 -23 -21 -8
-47 14 -49 43 -1 11 -10 30 -21 42 -17 19 -19 39 -22 176 -2 85 -1 162 2 170
6 14 9 14 26 -2 18 -17 20 -31 20 -170z m5979 135 c6 -28 11 -74 11 -102 0
-53 -28 -158 -42 -158 -4 0 -8 -6 -8 -14 0 -7 -18 -32 -39 -54 -45 -46 -81
-69 -81 -52 0 6 -5 8 -12 4 -7 -4 -8 -3 -4 4 4 6 14 8 23 5 12 -5 14 -3 8 7
-5 8 -4 11 1 7 12 -7 54 24 58 43 1 8 9 28 16 43 10 20 16 24 22 15 5 -8 8 -2
8 18 0 16 5 35 11 41 15 15 -5 143 -31 193 -11 22 -20 42 -20 45 0 3 15 5 34
5 33 0 35 -2 45 -50z m-2029 10 c23 -23 26 -59 8 -82 -19 -23 -126 -30 -137
-9 -7 12 -12 13 -23 3 -20 -16 -28 -6 -28 35 0 39 19 44 50 11 l20 -22 38 42
c20 23 40 42 45 42 4 0 16 -9 27 -20z m358 8 c13 -13 16 -76 4 -95 -4 -7 -40
-15 -78 -19 -69 -6 -71 -7 -83 -40 -7 -19 -18 -34 -26 -34 -7 0 -15 -5 -17
-12 -2 -6 -8 -9 -14 -6 -9 6 -3 173 7 183 3 2 20 8 37 11 28 6 33 3 42 -20 8
-22 14 -26 33 -20 12 3 24 11 26 17 5 14 40 47 49 47 4 0 13 -5 20 -12z m842
-10 c0 -16 -11 -18 -100 -18 -55 0 -100 2 -100 4 0 2 -3 11 -6 19 -5 13 10 15
100 14 94 -2 106 -4 106 -19z m-1431 -55 c-1 -38 -5 -81 -9 -98 l-7 -30 -13
30 c-20 46 -26 145 -9 156 32 20 39 10 38 -58z m748 41 c15 -39 -51 -173 -74
-150 -14 13 -16 135 -3 151 17 20 69 19 77 -1z m-399 -31 c-2 -31 -7 -39 -25
-41 -20 -3 -23 1 -23 31 0 34 9 44 38 46 9 1 12 -10 10 -36z m1282 -64 c0 -74
29 -139 88 -201 31 -32 48 -56 39 -52 -10 3 -17 1 -17 -5 0 -16 59 -50 100
-57 19 -3 44 -9 55 -13 15 -6 11 -8 -16 -9 -23 -1 -62 12 -109 36 -124 62
-202 181 -186 282 13 83 46 97 46 19z m-5206 -125 c4 -92 4 -169 1 -172 -3 -3
-13 1 -21 10 -12 12 -17 45 -21 135 -6 130 1 193 21 193 10 0 15 -40 20 -166z
m4994 144 c-3 -9 -27 -13 -73 -13 -46 0 -70 4 -72 13 -4 9 15 12 72 12 57 0
76 -3 73 -12z m-507 -71 c-8 -8 -11 -3 -11 19 1 25 2 27 11 11 8 -14 8 -22 0
-30z m-1057 -27 c27 -25 51 -60 63 -92 11 -29 45 -112 76 -184 30 -73 63 -156
72 -185 10 -30 21 -58 25 -64 4 -5 24 -55 45 -110 20 -55 47 -125 60 -155 13
-30 49 -120 80 -200 30 -80 69 -176 85 -215 71 -172 91 -233 71 -221 -5 4 -7
-2 -5 -11 6 -24 -11 -47 -28 -40 -17 6 -28 32 -163 377 -150 380 -155 394
-298 755 -74 187 -138 350 -142 363 -10 33 10 27 59 -18z m1396 33 c0 -5 -7
-55 -15 -113 -8 -58 -15 -124 -15 -147 0 -37 -3 -43 -24 -49 -35 -9 -46 2 -46
46 0 48 18 182 31 233 9 32 14 37 39 37 17 0 30 -3 30 -7z m-151 -9 c26 -6 31
-11 31 -36 0 -25 -12 -61 -26 -77 -2 -2 -13 4 -24 14 -20 18 -21 18 -34 0 -19
-27 -79 -13 -95 22 -11 24 -10 29 11 44 13 10 39 22 58 27 47 13 43 13 79 6z
m321 -48 l0 -43 -52 3 c-29 2 -59 3 -65 4 -8 0 -13 15 -13 40 l0 40 65 0 65 0
0 -44z m-508 -80 c8 -57 8 -80 0 -88 -9 -9 -12 -8 -12 4 0 9 -5 18 -10 20 -13
4 -21 82 -13 126 8 51 23 25 35 -62z m-626 40 c41 -41 45 -86 12 -143 -36 -63
-48 -73 -90 -73 -86 0 -134 55 -125 144 6 70 46 106 118 106 45 0 55 -4 85
-34z m371 7 c-2 -10 -8 -26 -12 -37 -7 -16 -6 -17 13 -7 11 6 27 8 36 5 11 -4
15 1 13 23 -2 22 3 29 21 31 42 6 92 -61 92 -123 0 -99 -127 -153 -202 -86
-29 25 -32 35 -36 94 -4 60 -2 68 21 91 30 30 62 35 54 9z m-127 -24 c0 -6 -4
-7 -10 -4 -5 3 -10 11 -10 16 0 6 5 7 10 4 6 -3 10 -11 10 -16z m-39 -56 c23
-5 45 -61 31 -75 -8 -8 -9 -6 -6 8 3 12 -4 28 -18 41 -20 19 -27 21 -48 10
-16 -8 -26 -23 -28 -40 -2 -15 -8 -27 -13 -27 -12 0 -9 60 4 77 9 12 44 15 78
6z m577 0 c-10 -2 -18 -9 -18 -15 0 -5 -7 -7 -16 -4 -9 4 -13 2 -8 -5 4 -7 1
-10 -6 -7 -8 2 -15 9 -17 15 -4 12 19 21 57 21 16 0 19 -2 8 -5z m-3738 -78
c-14 -37 -17 -30 -12 30 4 45 6 47 14 24 5 -16 5 -36 -2 -54z m1300 -145 c0
-149 -4 -209 -14 -234 -41 -99 -141 -102 -180 -5 -13 31 -16 80 -16 233 0 106
3 196 7 199 3 4 51 7 105 7 l98 0 0 -200z m2370 141 c-6 -12 -17 -21 -25 -21
-10 0 -8 7 8 23 26 27 33 27 17 -2z m-3270 -13 c26 -14 57 -41 75 -66 24 -36
30 -53 30 -100 -1 -61 -36 -142 -62 -142 -8 0 -11 -4 -8 -10 3 -5 0 -10 -9
-10 -8 0 -16 -5 -18 -12 -2 -6 -29 -13 -59 -16 -43 -3 -64 0 -95 17 -87 46
-117 90 -117 169 0 67 20 111 65 145 68 51 131 58 198 25z m3674 0 c26 -23 31
-40 27 -88 -2 -25 -2 -25 -17 5 -8 17 -12 22 -9 12 3 -10 1 -15 -5 -12 -6 3
-10 12 -10 19 0 7 -13 26 -30 42 -16 16 -30 32 -30 37 0 16 50 6 74 -15z m108
5 c21 -19 23 -41 4 -66 -13 -17 -16 -16 -40 16 -29 38 -32 53 -13 60 21 9 30
7 49 -10z m-1433 -28 c7 -20 37 -66 67 -103 29 -37 54 -70 54 -74 0 -5 -9 -8
-19 -8 -46 0 -165 176 -140 207 17 20 24 16 38 -22z m2118 -3 c-21 -21 -35
-41 -31 -44 13 -14 -129 -88 -167 -88 -5 0 -9 16 -9 35 0 32 3 35 28 35 48 0
97 19 153 59 68 50 72 50 26 3z m-5792 -5 c28 -14 44 -38 45 -66 0 -22 -1 -23
-25 -7 -33 22 -34 21 -21 -24 13 -49 1 -74 -36 -78 -37 -4 -60 22 -48 54 14
35 12 42 -5 21 -13 -18 -14 -18 -25 3 -6 12 -14 19 -17 16 -3 -3 2 -17 11 -31
10 -15 16 -33 14 -42 -3 -13 -6 -13 -26 4 -22 17 -23 23 -16 82 6 58 9 64 38
76 32 14 75 10 111 -8z m5580 13 c-11 -5 -29 -8 -40 -8 -16 0 -15 2 5 8 34 11
60 11 35 0z m-105 -84 c0 -13 3 -32 7 -41 5 -15 1 -16 -28 -10 -44 9 -81 33
-76 48 2 7 21 15 43 18 21 3 42 7 47 8 4 0 7 -10 7 -23z m-242 -29 c14 -21 18
-33 11 -36 -13 -4 -48 37 -49 57 0 21 14 13 38 -21z m308 8 c7 -29 1 -41 -15
-30 -14 8 -14 55 -1 55 5 0 12 -11 16 -25z m-5411 -46 c31 -35 91 -66 143 -75
59 -9 65 -16 57 -61 l-6 -40 -42 4 c-49 6 -175 63 -201 92 -12 13 -16 27 -11
42 7 22 8 22 20 -7 8 -16 14 -25 14 -21 1 4 11 3 23 -4 21 -11 20 -11 -2 22
-13 19 -30 38 -37 42 -7 4 -13 22 -13 40 1 30 2 31 15 13 8 -11 26 -32 40 -47z
m4545 34 c23 -5 24 -6 5 -13 -11 -5 -44 -9 -72 -9 -39 -1 -53 3 -53 13 0 24
39 27 120 9z m-183 -10 c6 -17 -162 -29 -182 -13 -8 7 -12 16 -9 21 8 14 187
7 191 -8z m313 2 c0 -9 -6 -12 -15 -9 -8 4 -15 10 -15 15 0 5 7 9 15 9 8 0 15
-7 15 -15z m1034 -14 c3 -4 -1 -17 -9 -27 -14 -18 -14 -18 -15 9 0 26 13 36
24 18z m-5497 -7 c-3 -3 -12 -4 -19 -1 -8 3 -5 6 6 6 11 1 17 -2 13 -5z m693
-58 c0 -75 -62 -94 -341 -104 l-192 -7 -14 34 c-12 28 -12 35 -1 42 7 5 99 8
203 6 l190 -2 70 35 c39 20 73 34 78 32 4 -2 7 -18 7 -36z m-1081 -63 c2 -2
-6 -3 -18 -3 -26 0 -81 51 -81 76 0 12 13 5 48 -26 26 -24 49 -45 51 -47z
m4769 70 c-3 -16 -22 -18 -205 -21 l-202 -2 2 -163 c2 -156 1 -162 -18 -162
-19 0 -20 7 -22 170 -1 94 0 176 2 183 3 9 58 12 225 12 206 0 221 -1 218 -17z
m310 -9 c46 -14 81 -28 77 -32 -3 -4 -66 -11 -138 -17 -124 -9 -132 -11 -129
-30 7 -37 32 -55 79 -55 40 0 44 2 49 29 8 38 34 30 34 -9 0 -27 -3 -29 -54
-35 -57 -7 -82 1 -123 38 -27 24 -28 19 -9 -28 l15 -35 133 -1 c155 -1 210
-13 103 -22 -39 -4 -108 -9 -155 -13 l-85 -6 3 -37 4 -36 66 3 c41 2 73 10 84
19 15 13 17 11 23 -16 4 -17 12 -31 18 -32 7 0 3 -4 -8 -9 -16 -7 -14 -9 15
-9 26 -1 31 -4 20 -11 -12 -8 -13 -13 -3 -29 12 -18 9 -20 -33 -27 -29 -4 -48
-13 -55 -25 -7 -15 -20 -19 -57 -18 -26 1 -39 3 -29 6 9 2 17 9 17 15 0 5 13
7 33 4 30 -6 30 -5 7 5 -14 5 -51 9 -82 8 -32 -1 -60 -1 -62 2 -3 2 -1 76 3
164 5 116 4 170 -5 196 -15 46 -8 57 41 62 90 9 123 6 203 -19z m310 10 c41
-29 25 -58 -27 -48 -26 6 -31 11 -31 35 0 34 22 39 58 13z m-4906 -74 c4 -41
12 -85 18 -98 15 -35 12 -41 -17 -33 -46 12 -68 54 -68 127 0 66 12 87 45 81
11 -2 17 -22 22 -77z m3774 70 c19 0 24 -5 24 -24 0 -31 -14 -34 -136 -30 -54
2 -104 0 -110 -4 -6 -4 -13 -21 -16 -39 -4 -31 -4 -32 44 -38 70 -10 128 2
128 26 0 27 18 24 22 -3 2 -16 12 -24 33 -28 23 -4 29 -10 27 -25 -2 -11 -7
-24 -11 -28 -5 -5 -58 -11 -119 -14 l-112 -6 -6 -32 c-3 -18 -4 -42 -2 -55 2
-19 -2 -23 -29 -26 -34 -4 -52 11 -34 29 7 7 9 48 4 127 -7 142 0 154 94 165
32 3 65 8 73 10 8 2 35 2 59 -1 24 -2 54 -4 67 -4z m1511 -6 c8 -21 -16 -42
-52 -46 -44 -5 -47 28 -3 47 42 18 47 18 55 -1z m-206 -4 c19 -6 46 -22 60
-37 13 -14 18 -23 11 -19 -20 12 -41 -23 -42 -68 0 -49 -31 -86 -71 -86 -18 0
-29 -6 -31 -17 -3 -15 -10 -12 -39 17 -46 45 -60 111 -31 150 21 28 79 70 96
70 6 0 27 -5 47 -10z m-1663 -68 c4 -30 -26 -64 -52 -60 -28 4 -44 51 -26 73
21 25 74 16 78 -13z m1485 -48 c-6 -15 -61 -33 -80 -26 -20 7 -15 32 8 40 32
12 79 3 72 -14z m419 9 c4 -2 5 -10 1 -18 -3 -10 -19 -15 -44 -15 -35 0 -39 3
-39 25 0 24 2 26 38 19 20 -4 40 -8 44 -11z m-5929 -11 c15 -10 24 -22 20 -25
-3 -4 -58 -8 -122 -8 -64 -1 -145 -4 -181 -8 l-65 -6 -1 -180 c-1 -249 17
-289 148 -315 80 -15 114 -33 133 -70 24 -47 19 -76 -15 -94 -34 -16 -40 -11
-54 47 -4 17 -17 32 -34 40 -15 6 -29 14 -32 17 -3 3 -23 10 -45 16 -22 6 -49
15 -59 19 -14 6 -17 5 -11 -4 14 -24 -31 7 -59 40 -31 36 -28 10 -26 289 1
214 2 226 22 243 17 15 43 17 187 17 144 0 170 -3 194 -18z m1110 11 c-7 -2
-19 -2 -25 0 -7 3 -2 5 12 5 14 0 19 -2 13 -5z m-254 -19 c2 -2 -31 -4 -75 -4
-55 0 -74 3 -64 10 13 9 128 3 139 -6z m161 6 c-30 -5 -75 -8 -100 -8 -45 1
-45 1 -10 8 19 4 64 7 100 7 l65 0 -55 -7z m3806 -47 c8 -50 1 -53 -137 -53
l-129 0 0 33 c0 19 2 36 4 38 2 2 62 3 132 2 115 -2 128 -4 130 -20z m-762 9
c-6 -4 -14 -16 -19 -27 -8 -19 -8 -19 -13 -1 -2 10 2 22 10 27 16 11 38 12 22
1z m-3844 -116 c0 -95 -5 -116 -29 -116 -14 1 -13 3 3 15 11 8 17 17 14 21 -4
3 -78 8 -166 11 -152 4 -161 4 -171 -15 -14 -27 -6 -32 53 -33 97 -2 107 -15
16 -21 -46 -4 -88 -4 -92 -2 -5 3 -8 52 -8 109 0 90 2 104 18 108 9 3 95 5
190 6 l172 1 0 -84z m264 78 c9 -4 21 -14 26 -24 8 -15 4 -17 -48 -13 -31 2
-58 9 -60 14 -2 5 -13 9 -25 10 -12 0 -31 4 -42 9 -23 10 123 14 149 4z m684
-89 c-2 -79 -1 -95 12 -95 27 0 90 -21 90 -29 0 -5 -48 -10 -106 -10 -81 -1
-105 1 -102 11 3 7 19 17 36 22 l32 9 -6 67 c-8 86 0 120 27 120 19 0 20 -5
17 -95z m-101 63 c-3 -8 -6 -5 -6 6 -1 11 2 17 5 13 3 -3 4 -12 1 -19z m343
11 c-60 -9 -171 -9 -165 0 2 4 52 7 112 8 95 1 101 0 53 -8z m4123 -4 c-6 -18
-54 -45 -78 -45 -27 0 -16 31 18 45 44 19 68 19 60 0z m352 -25 c3 -6 -1 -7
-9 -4 -18 7 -21 14 -7 14 6 0 13 -4 16 -10z m-1538 -58 c-3 -4 -30 -5 -61 -4
-62 4 -67 22 -6 22 21 0 42 5 46 11 5 8 10 6 16 -5 5 -9 7 -19 5 -24z m-4557
-1 c15 -29 12 -61 -6 -68 -9 -3 -20 0 -25 8 -4 8 -14 14 -21 14 -7 0 -14 10
-16 23 -2 16 3 25 20 31 33 14 36 13 48 -8z m4425 9 c4 -6 -5 -10 -19 -10 -14
0 -26 5 -26 10 0 6 9 10 19 10 11 0 23 -4 26 -10z m1415 -19 c0 -5 -7 -12 -16
-15 -14 -5 -15 -4 -4 9 14 17 20 19 20 6z m-5120 -16 c0 -8 -2 -15 -4 -15 -2
0 -11 -3 -19 -6 -9 -3 -16 3 -20 15 -4 17 0 21 19 21 15 0 24 -6 24 -15z m213
3 c46 -24 58 -64 36 -127 -12 -33 -52 -61 -89 -61 -12 0 -35 13 -51 29 -77 78
9 210 104 159z m767 3 c0 -6 -4 -12 -9 -15 -5 -3 -8 -17 -8 -31 0 -14 3 -25 8
-25 5 0 9 -4 9 -10 0 -5 -11 -10 -25 -10 -17 0 -26 6 -29 23 -4 18 -2 65 3 75
4 7 51 1 51 -7z m4248 -44 c9 -8 34 -20 55 -27 42 -13 40 -30 -4 -30 -42 0
-79 40 -78 82 1 22 3 26 6 12 2 -12 12 -29 21 -37z m-4760 10 c13 -14 22 -32
20 -40 -3 -14 -6 -14 -28 3 -21 17 -23 21 -10 30 8 5 11 10 5 10 -5 0 -17 -5
-25 -10 -13 -9 -13 -11 0 -19 8 -6 11 -13 7 -18 -5 -4 -11 -2 -15 4 -7 11 -26
17 -48 14 -7 0 -14 -10 -17 -21 -5 -20 -31 -27 -41 -12 -3 5 -8 28 -12 52 l-7
43 73 -6 c60 -5 78 -11 98 -30z m3430 -29 c3 -37 2 -38 -30 -39 -41 -2 -68 -5
-140 -14 -54 -7 -58 -6 -97 25 -23 19 -41 42 -41 52 0 17 10 18 153 16 l152
-3 3 -37z m-3892 -32 c2 -67 -3 -82 -32 -95 -36 -16 -36 -16 -29 37 14 112 15
113 38 110 19 -3 22 -10 23 -52z m4097 34 c86 0 88 -1 85 -22 -3 -22 -8 -23
-91 -26 -88 -3 -89 -3 -83 -27 6 -25 -10 -44 -24 -29 -5 5 -12 33 -16 63 -7
54 -7 54 17 48 13 -4 64 -7 112 -7z m253 -3 c2 -2 5 -14 6 -27 3 -21 -2 -25
-42 -32 -25 -4 -46 -12 -48 -18 -8 -22 -22 4 -22 40 0 28 5 40 18 44 17 5 81
0 88 -7z m-3916 -84 c25 -32 19 -39 -40 -52 -58 -13 -69 -2 -47 44 21 44 56
47 87 8z m4564 19 c2 -4 -2 -16 -10 -27 -13 -18 -14 -18 -14 8 0 25 13 36 24
19z m196 -8 c122 -49 97 -239 -35 -259 -141 -21 -213 181 -92 255 39 24 74 25
127 4z m-1085 -4 c4 -6 -5 -10 -20 -10 -15 0 -24 4 -20 10 3 6 12 10 20 10 8
0 17 -4 20 -10z m1310 -20 l28 -29 -46 -103 c-25 -57 -48 -113 -52 -126 -8
-28 -51 -28 -49 1 2 19 -15 24 -17 5 -1 -7 -3 -22 -4 -33 -3 -25 -45 -96 -45
-75 0 8 12 42 26 75 74 175 101 252 103 298 1 26 24 21 56 -13z m-5535 10 c0
-24 -30 -79 -47 -88 -10 -5 -62 -12 -115 -16 -76 -5 -98 -4 -98 6 0 7 -3 22
-6 33 -5 19 -1 20 90 17 93 -3 95 -3 128 27 35 32 48 38 48 21z m858 -5 c8 -3
10 -10 5 -17 -13 -23 -15 -40 -20 -190 l-5 -148 -31 -1 c-27 0 -29 -2 -12 -9
11 -5 15 -9 9 -9 -7 -1 -14 -13 -17 -28 -4 -21 0 -32 16 -45 21 -17 18 -18
-81 -18 l-102 0 2 232 3 232 25 7 c25 7 184 2 208 -6z m3432 6 c0 -5 -9 -7
-20 -4 -11 3 -20 7 -20 9 0 2 9 4 20 4 11 0 20 -4 20 -9z m-4945 -11 c3 -5 1
-10 -4 -10 -6 0 -11 5 -11 10 0 6 2 10 4 10 3 0 8 -4 11 -10z m128 -40 l78 0
-3 -27 c-3 -28 -3 -28 -93 -31 -82 -3 -92 -1 -107 19 -10 12 -18 29 -18 39 0
16 4 17 32 9 18 -5 68 -9 111 -9z m2471 1 c23 -25 13 -58 -21 -74 -19 -9 -26
-8 -34 4 -15 24 -10 67 9 78 24 14 26 14 46 -8z m2896 -10 c0 -17 -4 -32 -9
-35 -4 -3 -6 -30 -4 -61 3 -41 1 -55 -9 -55 -10 0 -13 21 -12 88 1 48 2 88 3
90 0 1 8 2 16 2 10 0 15 -10 15 -29z m160 5 c0 -13 -6 -26 -14 -29 -11 -4 -12
-14 -5 -44 13 -57 11 -83 -6 -83 -12 0 -15 17 -15 90 0 83 1 90 20 90 14 0 20
-7 20 -24z m-5311 -12 c16 -36 -1 -55 -40 -47 -21 4 -30 1 -35 -11 -10 -25
-24 -8 -24 28 0 40 15 56 55 56 25 0 35 -6 44 -26z m2929 14 c18 -18 15 -42
-7 -62 -36 -33 -74 8 -55 58 7 19 45 21 62 4z m-2258 -77 c0 -44 -18 -64 -52
-59 -18 2 -24 10 -26 36 -5 50 3 62 43 62 34 0 35 -1 35 -39z m3580 2 c30 -25
32 -30 27 -77 -4 -42 -10 -55 -38 -78 -60 -51 -132 -28 -158 50 -32 99 88 173
169 105z m511 -2 c16 -17 29 -40 28 -53 0 -13 -3 -17 -6 -11 -3 8 -13 3 -29
-16 -33 -39 -71 -45 -101 -15 -37 37 -28 85 22 112 33 18 55 14 86 -17z m619
-26 c0 -25 -4 -45 -10 -45 -11 0 -14 73 -3 83 11 12 13 8 13 -38z m-4860 -49
c-7 -14 -18 -22 -26 -19 -8 3 -21 0 -29 -7 -9 -8 -64 -14 -152 -16 -146 -5
-243 -25 -243 -51 0 -8 -4 -12 -8 -9 -5 3 -16 -10 -25 -29 -18 -38 -28 -43
-45 -22 -19 23 5 82 48 121 44 40 30 38 285 40 103 1 113 3 150 29 39 27 40
27 49 7 6 -14 5 -28 -4 -44z m4518 52 c20 -20 14 -53 -16 -81 l-28 -27 -27 28
c-31 33 -32 40 -11 70 17 24 62 30 82 10z m182 -22 c0 -14 -4 -28 -10 -31 -6
-4 -10 7 -10 24 0 17 5 31 10 31 6 0 10 -11 10 -24z m-4380 -7 c7 -11 9 -26 7
-34 -3 -7 -1 -17 4 -22 10 -10 30 -154 23 -162 -6 -7 -35 22 -50 50 -8 16 -14
48 -14 73 0 37 -4 46 -22 52 -22 8 -22 8 7 15 28 6 28 7 5 9 l-25 2 25 8 c23
7 22 8 -10 9 -20 1 -41 -4 -48 -11 -9 -9 -12 -9 -12 0 0 34 93 44 110 11z
m1410 -166 l-1 -158 -24 28 c-24 27 -25 35 -25 151 0 67 3 126 7 129 3 4 15 7
25 7 17 0 18 -11 18 -157z m654 151 c14 -5 16 -30 16 -169 0 -167 -7 -199 -37
-160 -21 29 -18 335 3 335 1 0 9 -3 18 -6z m-2242 -22 c33 -13 68 -74 68 -117
0 -49 -22 -82 -66 -101 -51 -21 -77 -17 -120 20 -35 30 -39 38 -38 78 1 53 24
90 67 112 34 16 61 19 89 8z m3793 -27 c29 -28 32 -60 7 -96 -12 -19 -22 -24
-35 -20 -17 6 -17 8 -4 19 22 19 10 52 -19 52 -26 0 -50 -41 -37 -63 3 -7 -3
-3 -15 7 -45 39 -8 126 53 126 14 0 37 -11 50 -25z m179 -9 c14 -19 26 -41 26
-48 -1 -15 -70 56 -70 72 0 20 18 10 44 -24z m-2846 -41 c4 -55 -15 -203 -28
-225 -7 -11 -90 -44 -90 -35 0 1 7 20 16 41 11 27 16 68 15 143 -1 117 6 134
53 129 30 -3 31 -5 34 -53z m-1858 30 c0 -8 -4 -15 -10 -15 -5 0 -10 7 -10 15
0 8 5 15 10 15 6 0 10 -7 10 -15z m5444 9 c9 -3 16 -13 16 -22 0 -8 -3 -12 -7
-9 -3 4 -12 -1 -20 -11 -8 -9 -12 -11 -8 -4 3 6 2 12 -4 12 -7 0 -12 -66 -13
-187 l-3 -187 -25 -1 c-14 0 -31 -4 -38 -9 -7 -4 -16 -5 -19 -2 -4 3 -2 6 3 6
5 0 8 79 6 190 -2 151 -6 190 -16 190 -20 0 -22 -27 -16 -223 l5 -177 -97 0
-98 0 0 220 0 220 159 0 c88 0 166 -3 175 -6z m-427 -39 c36 -42 29 -99 -20
-152 -45 -50 -120 -34 -151 32 -23 48 -13 86 31 126 32 27 41 31 77 26 27 -4
49 -15 63 -32z m803 -10 c4 3 6 -5 2 -17 -5 -21 -6 -21 -13 -2 -7 18 -8 18 -8
0 -1 -25 -6 -18 -15 18 -6 26 -6 27 9 12 9 -9 20 -14 25 -11z m-1126 -37 c6
-5 2 -14 -10 -23 -25 -19 -34 -19 -34 0 0 8 5 15 12 15 6 0 2 10 -10 23 -31
33 -27 45 6 16 15 -13 31 -27 36 -31z m-4951 -21 l39 -14 -51 -32 c-65 -39
-75 -40 -26 -1 51 40 38 38 -30 -5 -31 -20 -53 -40 -50 -46 4 -5 1 -8 -6 -7
-18 4 -80 -123 -85 -174 -10 -94 -14 -106 -31 -104 -9 2 -24 13 -35 25 -38 48
-12 171 55 254 40 52 146 130 166 123 9 -2 33 -11 54 -19z m5774 -9 c-3 -7 -5
-2 -5 12 0 14 2 19 5 13 2 -7 2 -19 0 -25z m108 2 c0 -16 -6 -26 -17 -28 -14
-3 -18 3 -18 28 0 25 4 31 18 28 11 -2 17 -12 17 -28z m-5144 -3 c18 -12 44
-38 56 -56 22 -33 23 -41 23 -264 l0 -230 -47 -43 c-130 -119 -123 -108 -123
-182 1 -43 6 -74 15 -86 8 -11 15 -29 15 -40 0 -12 10 -32 21 -46 11 -14 17
-19 13 -11 -4 7 8 3 27 -10 19 -13 35 -27 37 -31 2 -5 13 -6 25 -4 12 1 16 1
9 -1 -7 -3 -10 -9 -7 -14 11 -17 -70 -9 -101 10 -17 10 -48 40 -70 66 -38 47
-39 50 -42 141 -5 114 9 147 84 205 97 75 94 66 94 278 0 222 -4 231 -119 308
-2 1 -1 9 2 18 9 22 49 19 88 -8z m1237 -7 c5 -41 -17 -60 -73 -63 l-50 -2 -3
39 c-4 48 8 57 73 54 45 -3 50 -5 53 -28z m508 3 c-2 -16 -4 -32 -5 -38 -1 -6
-41 -9 -106 -7 -94 3 -105 5 -105 21 0 37 31 48 142 50 l77 1 -3 -27z m664
-19 l0 -45 -137 4 c-76 3 -189 5 -250 5 l-113 1 0 40 0 41 250 0 250 0 0 -46z
m441 11 c23 -16 53 -50 66 -74 22 -43 23 -52 21 -230 l-3 -185 -27 -7 c-17 -4
-31 -3 -35 4 -3 6 -7 85 -8 176 -3 240 -17 261 -172 261 -59 0 -93 4 -93 11 0
5 -4 8 -9 5 -12 -8 -25 49 -16 65 5 7 45 10 120 7 107 -3 116 -5 156 -33z
m2119 -87 c0 -67 -4 -118 -8 -113 -8 10 -4 235 4 235 2 0 4 -55 4 -122z
m-1075 91 c5 -6 2 -9 -8 -9 -10 0 -20 -7 -23 -15 -5 -13 -9 -13 -22 -3 -13 11
-14 10 -8 -10 8 -24 2 -28 -17 -12 -7 6 -24 19 -39 31 -16 11 -28 24 -28 29 0
10 132 0 145 -11z m-4266 -14 c44 -23 80 -69 102 -129 17 -51 19 -100 3 -83
-3 3 -13 -2 -23 -11 -14 -14 -15 -19 -3 -27 9 -7 16 -41 19 -93 5 -67 3 -86
-10 -100 -10 -11 -13 -22 -7 -31 12 -21 -13 -53 -62 -82 -37 -21 -56 -24 -139
-24 -87 0 -99 2 -137 28 -23 15 -51 45 -63 68 -19 38 -20 55 -17 209 3 166 3
167 33 210 16 23 40 49 52 57 49 33 197 37 252 8z m4676 15 c9 -15 -14 -50
-34 -50 -28 0 -32 10 -13 36 18 25 37 30 47 14z m-428 -56 c-3 -3 -12 -4 -19
-1 -8 3 -5 6 6 6 11 1 17 -2 13 -5z m-3990 -38 c42 -20 54 -31 61 -58 5 -18 8
-35 6 -38 -1 -3 -23 -4 -48 -2 -40 4 -48 8 -68 40 -12 21 -30 43 -40 50 -52
38 13 43 89 8z m4369 -21 c107 -48 179 -145 204 -273 7 -34 10 -83 7 -109 -11
-87 -34 -184 -47 -196 -10 -10 -12 -8 -6 8 4 11 9 38 12 60 4 38 3 36 -22 -23
-45 -107 -182 -204 -302 -215 -49 -4 -52 -3 -37 13 9 10 43 27 75 39 225 82
327 328 225 537 -31 63 -80 108 -153 142 -48 22 -64 24 -143 20 -82 -4 -119 5
-66 16 12 3 31 7 42 10 43 10 161 -6 211 -29z m-1468 -11 c27 -31 28 -64 2
-92 -41 -44 -130 -13 -130 45 0 77 75 104 128 47z m1632 -23 c36 -33 63 -61
60 -64 -3 -3 -36 24 -74 59 -38 35 -65 64 -60 64 5 -1 38 -27 74 -59z m-5170
37 c0 -7 -3 -30 -6 -50 l-7 -38 -53 0 c-67 0 -70 15 -12 64 42 36 78 47 78 24z
m936 -6 c7 -4 13 -92 18 -252 3 -135 9 -262 12 -282 5 -25 3 -38 -5 -38 -6 0
-11 9 -11 21 0 12 -11 34 -25 51 l-25 30 0 239 c0 243 2 254 36 231z m1655
-89 c166 -170 212 -225 197 -234 -7 -5 -18 -9 -24 -9 -10 0 -257 244 -276 272
-6 10 -13 7 -27 -12 -17 -21 -18 -27 -6 -40 8 -9 11 -21 6 -29 -6 -9 -11 -10
-15 -2 -4 6 -2 11 4 11 6 0 8 5 5 10 -3 6 -11 10 -16 10 -6 0 -7 -4 -4 -10 3
-5 1 -10 -6 -10 -7 0 -5 -8 7 -22 19 -21 19 -21 -1 -14 -16 6 -17 5 -8 -5 17
-17 53 -22 53 -7 0 6 3 8 6 5 4 -4 1 -13 -5 -21 -15 -18 7 -59 26 -51 8 2 13
-4 13 -15 0 -23 15 -27 24 -5 7 19 23 19 23 0 0 -8 -4 -12 -9 -9 -4 3 -8 0 -8
-5 0 -16 37 -13 43 3 6 16 -68 90 -83 81 -5 -3 -7 0 -4 8 3 8 1 18 -5 22 -6 3
-11 11 -11 17 0 5 27 -18 60 -52 32 -35 57 -67 54 -72 -3 -5 1 -8 9 -6 8 2 36
-19 61 -46 45 -47 57 -64 36 -51 -5 3 -10 2 -10 -2 0 -5 8 -13 19 -20 26 -16
65 -73 51 -73 -7 0 -14 9 -17 20 -3 13 -14 20 -28 20 -19 0 -22 -4 -17 -22 5
-19 7 -20 10 -5 2 9 8 17 13 17 6 0 7 -5 4 -10 -4 -6 -2 -17 5 -25 9 -11 7
-12 -12 -8 l-23 5 25 -23 25 -22 -25 8 c-24 7 -24 6 -6 -7 10 -8 16 -20 12
-26 -14 -22 5 -34 25 -16 10 9 19 12 19 6 0 -13 -143 -166 -181 -192 l-27 -20
-32 27 c-41 34 -250 271 -250 282 0 40 34 55 45 21 6 -17 8 -18 21 -6 24 24
16 49 -37 109 -45 51 -55 57 -90 57 -22 0 -39 5 -39 11 0 16 188 217 234 251
21 15 46 28 55 28 9 0 59 -44 112 -97z m351 70 c6 -22 -1 -43 -12 -43 -5 0
-37 -27 -72 -60 -60 -58 -86 -70 -95 -43 -6 16 138 163 159 163 8 0 18 -8 20
-17z m203 -106 c54 -56 100 -95 128 -107 56 -25 65 -36 82 -102 13 -46 12 -55
-1 -76 -25 -38 -49 -24 -52 31 -2 28 1 47 7 47 6 0 11 9 11 21 0 17 -4 20 -28
14 -26 -5 -37 3 -123 93 -132 139 -169 180 -169 193 0 21 65 -29 145 -114z
m-1655 93 c0 -5 -28 -10 -62 -12 l-63 -3 28 -16 c27 -14 28 -17 13 -32 -24
-23 -20 -27 24 -27 50 0 53 -18 3 -22 -51 -4 -52 -23 -2 -34 54 -11 64 -34 16
-34 -79 0 -91 -26 -17 -36 55 -7 72 -33 23 -35 -16 0 -37 -4 -48 -9 -17 -7
-14 -9 13 -9 40 -1 34 -21 -6 -21 -21 0 -24 -2 -12 -10 8 -5 27 -10 42 -10 31
0 47 -18 27 -31 -8 -5 -31 -9 -51 -9 -52 0 -47 -17 10 -33 63 -19 62 -40 -3
-47 -52 -5 -52 -13 2 -25 38 -8 52 -23 32 -36 -10 -6 -11 -9 -1 -9 29 0 9 -19
-25 -23 -33 -3 -35 -5 -15 -12 12 -4 22 -11 22 -15 0 -10 -37 -20 -76 -20 -19
0 -31 -5 -31 -14 0 -8 7 -11 17 -9 10 3 20 -2 23 -10 4 -11 -4 -15 -34 -15
-68 -1 -69 3 -69 329 0 157 3 289 7 292 10 11 213 8 213 -3z m-423 -62 c-2
-13 -4 -3 -4 22 0 25 2 35 4 23 2 -13 2 -33 0 -45z m3868 45 c134 -45 213
-234 161 -382 -24 -67 -92 -158 -139 -185 -75 -44 -164 -68 -221 -61 -108 14
-209 85 -249 175 -24 53 -28 156 -8 214 27 78 165 206 260 241 50 19 139 18
196 -2z m-2232 -14 c-4 -15 -8 -17 -14 -8 -6 11 4 28 18 29 0 0 -1 -9 -4 -21z
m1767 11 c0 -5 -4 -10 -10 -10 -5 0 -10 5 -10 10 0 6 5 10 10 10 6 0 10 -4 10
-10z m-1535 -31 c-9 -14 26 -51 42 -44 9 3 11 0 7 -6 -4 -7 -1 -10 7 -7 8 3
13 11 12 17 -5 21 6 11 22 -19 17 -34 19 -44 5 -35 -5 3 -10 1 -10 -4 0 -14
13 -14 26 -1 7 7 36 -16 87 -69 69 -70 95 -103 67 -86 -5 3 -10 4 -10 1 0 -3
10 -10 21 -17 17 -9 20 -8 14 3 -4 7 2 4 13 -7 12 -11 24 -35 28 -53 l7 -32
-65 0 c-66 0 -118 16 -118 37 0 6 9 14 19 18 37 11 31 34 -23 92 -54 57 -54
58 -75 39 -29 -26 -27 -34 21 -83 45 -46 46 -67 1 -38 -35 23 -203 186 -203
197 0 11 92 107 103 108 5 0 5 -5 2 -11z m1633 -34 c-50 -48 -88 -63 -47 -19
22 25 78 64 89 64 3 0 -16 -21 -42 -45z m-1174 -17 c15 -21 22 -38 16 -38 -6
0 -18 -6 -25 -14 -12 -12 -12 -16 0 -26 8 -7 15 -17 15 -22 0 -5 -22 9 -50 32
-27 23 -50 47 -50 53 0 16 53 68 60 60 3 -5 18 -25 34 -45z m-1264 5 c0 -1
-15 -10 -32 -20 -27 -15 -59 -18 -184 -18 -115 0 -155 3 -168 14 -13 11 -14
16 -4 23 11 7 388 8 388 1z m3596 -18 c-3 -9 -10 -13 -16 -10 -6 4 -5 11 3 20
15 16 22 11 13 -10z m-4009 9 c-3 -3 -12 -4 -19 -1 -8 3 -5 6 6 6 11 1 17 -2
13 -5z m-1722 -58 l0 -38 -72 -3 -73 -2 0 38 c0 33 3 38 28 42 15 2 47 4 72 3
l45 -1 0 -39z m716 27 c5 -5 10 -20 11 -33 3 -24 1 -25 -69 -28 l-73 -3 0 34
c0 18 3 37 8 41 9 10 112 0 123 -11z m4557 -48 c-3 -3 -9 2 -12 12 -6 14 -5
15 5 6 7 -7 10 -15 7 -18z m-1708 -7 c0 -13 -18 -41 -42 -65 -39 -40 -43 -42
-60 -26 -10 9 -18 20 -18 24 0 4 19 26 43 48 47 46 77 53 77 19z m1940 -118
c0 -87 -3 -110 -14 -110 -17 0 -26 44 -26 125 0 72 6 95 26 95 11 0 14 -23 14
-110z m169 10 c2 -95 1 -100 -18 -100 -20 0 -21 6 -21 100 0 90 2 100 18 100
16 0 19 -11 21 -100z m-3620 75 c40 -20 79 -70 87 -110 8 -42 -10 -97 -39
-121 -12 -10 -16 -12 -9 -4 6 8 12 21 12 29 0 10 -8 8 -27 -10 -20 -17 -23
-18 -10 -3 24 29 22 96 -4 125 -18 21 -20 22 -14 4 26 -81 13 -115 -45 -115
-48 0 -60 18 -60 86 0 38 -2 46 -12 36 -23 -23 -16 -97 11 -126 14 -14 30 -26
37 -26 7 0 14 -4 16 -10 2 -5 13 -11 25 -13 35 -5 39 -17 7 -19 -111 -5 -159
26 -179 119 -23 108 107 209 204 158z m2375 -32 c-17 -93 -10 -184 19 -247 27
-58 126 -167 170 -187 16 -7 9 -8 -30 -5 -110 10 -193 68 -235 164 -28 62 -22
179 11 242 47 91 79 107 65 33z m863 5 c-3 -7 -5 -2 -5 12 0 14 2 19 5 13 2
-7 2 -19 0 -25z m-3507 -18 c17 -17 20 -29 15 -64 -6 -56 -13 -73 -31 -80 -18
-7 -17 2 1 34 17 29 20 70 5 70 -5 0 -10 5 -10 11 0 8 5 8 15 -1 8 -7 15 -8
15 -2 0 29 -61 45 -92 24 l-23 -16 19 22 c24 28 60 28 86 2z m-1998 -18 c4 -4
11 -53 16 -109 9 -97 11 -105 56 -177 26 -42 63 -88 82 -102 19 -15 32 -29 30
-31 -3 -3 -26 11 -52 31 -46 36 -72 42 -40 11 9 -9 16 -19 16 -23 0 -4 14 -15
31 -25 18 -10 29 -21 25 -25 -4 -3 -11 -1 -15 7 -5 7 -11 12 -15 12 -19 -3
-69 35 -104 79 -63 78 -85 146 -90 269 l-4 104 29 -7 c15 -4 31 -10 35 -14z
m5625 -4 c-3 -8 -6 -5 -6 6 -1 11 2 17 5 13 3 -3 4 -12 1 -19z m-3669 5 c-10
-2 -18 -9 -18 -14 0 -5 -5 -9 -11 -9 -8 0 -8 5 1 15 7 8 20 14 29 14 13 -1 13
-2 -1 -6z m-1748 -43 l0 -40 -63 0 c-70 0 -87 10 -87 52 l0 28 75 0 75 0 0
-40z m713 28 c10 -29 -17 -58 -66 -73 -68 -20 -67 -21 -67 25 0 33 4 42 23 50
34 13 105 12 110 -2z m2827 -23 c-7 -9 -15 -13 -17 -11 -7 7 7 26 19 26 6 0 6
-6 -2 -15z m-1279 -42 c1 -27 3 -74 5 -106 1 -33 -2 -55 -7 -51 -5 3 -9 -8 -9
-25 0 -20 -7 -34 -19 -41 -25 -13 -81 -13 -101 0 -13 9 -10 15 16 38 44 37 51
55 59 150 7 78 8 82 31 82 22 0 24 -4 25 -47z m612 -9 c46 -54 56 -74 39 -74
-5 0 -36 29 -70 65 -55 57 -60 65 -39 65 15 0 38 -18 70 -56z m-1782 -23 c6
10 9 7 9 -13 0 -16 -4 -28 -9 -28 -10 0 -21 37 -19 65 0 11 3 7 5 -9 4 -22 7
-26 14 -15z m2003 -57 c32 -31 61 -52 65 -47 8 14 130 26 176 17 92 -17 68
-154 -48 -269 -73 -72 -158 -111 -262 -122 -161 -15 -330 100 -275 187 12 19
273 288 281 289 3 1 31 -24 63 -55z m338 14 c-7 -7 -12 -8 -12 -2 0 6 3 14 7
17 3 4 9 5 12 2 2 -3 -1 -11 -7 -17z m-3515 -34 c-3 -3 -12 -4 -19 -1 -8 3 -5
6 6 6 11 1 17 -2 13 -5z m40 -25 c-15 -23 -29 -25 -20 -2 4 11 3 14 -5 9 -8
-4 -10 -2 -6 7 3 9 13 13 24 10 16 -4 17 -8 7 -24z m3613 -57 c0 -22 -4 -20
-35 21 -19 25 -35 51 -35 58 0 7 16 -2 35 -21 21 -21 35 -44 35 -58z m-3419
47 c4 -13 7 -100 8 -192 1 -109 4 -166 11 -162 6 3 10 1 10 -4 0 -12 -29 -14
-46 -3 -12 8 -20 144 -16 300 1 69 5 93 14 90 7 -3 15 -15 19 -29z m1030 -19
c-14 -45 -31 -66 -31 -40 0 11 38 90 43 90 2 0 -4 -22 -12 -50z m1643 35 c3
-8 1 -15 -4 -15 -6 0 -10 7 -10 15 0 8 2 15 4 15 2 0 6 -7 10 -15z m844 4 l30
-10 4 -127 c4 -150 -5 -228 -31 -288 -15 -32 -24 -42 -36 -38 -11 5 -14 2 -9
-12 5 -18 5 -18 -10 0 -12 15 -22 17 -52 11 l-38 -7 31 29 c65 61 72 97 73
411 0 23 2 42 4 42 1 0 17 -5 34 -11z m-3647 -42 c9 -34 -5 -77 -24 -77 -15 0
-41 26 -50 51 -3 9 1 26 10 38 21 31 55 24 64 -12z m5467 -16 c36 -34 52 -58
52 -75 0 -42 -70 -76 -84 -41 -3 9 1 18 9 21 8 4 15 15 15 26 0 17 -5 20 -30
16 -35 -5 -38 4 -10 32 17 17 18 21 6 26 -8 3 -23 1 -35 -5 -26 -14 -31 -14
-31 3 0 18 27 46 44 46 7 0 36 -22 64 -49z m-3408 -21 c18 -26 23 -61 12 -72
-8 -8 -27 -7 -69 5 -63 18 -140 29 -190 29 -18 0 -33 3 -33 6 0 4 -18 8 -39 8
-51 2 -91 12 -91 23 0 17 33 19 218 18 150 -2 184 -5 192 -17z m-1063 -34 c45
-53 39 -134 -15 -176 -30 -24 -98 -27 -128 -5 -50 34 -65 120 -30 167 39 53
133 61 173 14z m4133 9 c-7 -9 -15 -13 -19 -10 -3 3 1 10 9 15 21 14 24 12 10
-5z m-5090 -10 c0 -8 -4 -15 -9 -15 -13 0 -22 16 -14 24 11 11 23 6 23 -9z
m1035 -16 c10 -30 0 -33 -13 -4 -6 14 -7 25 -2 25 5 0 12 -9 15 -21z m4673 6
c5 -4 -107 -276 -119 -291 -13 -15 -27 -5 -48 33 -10 19 -5 38 32 125 25 57
48 114 52 126 6 21 11 23 43 17 21 -4 38 -8 40 -10z m-3990 -31 c16 -18 22
-37 21 -67 0 -29 -3 -36 -8 -23 -6 17 -9 15 -21 -13 -18 -45 -52 -66 -78 -50
-30 19 -52 63 -52 106 0 31 6 42 33 61 38 27 72 23 105 -14z m3512 -24 c-7
-22 -19 -40 -27 -40 -17 0 -17 4 8 51 25 50 37 43 19 -11z m-3262 -30 c4 -41
-12 -56 -43 -42 -28 13 -60 75 -51 99 10 24 90 -25 94 -57z m337 8 c73 -81 78
-88 74 -88 -3 0 -34 29 -69 65 -35 36 -60 65 -54 65 6 0 28 -19 49 -42z
m-1111 10 c20 -28 20 -34 0 -42 -10 -4 -13 -2 -8 7 6 9 5 9 -8 0 -12 -11 -17
-9 -27 13 -20 45 15 63 43 22z m2291 -13 c14 -13 25 -31 25 -40 0 -20 -6 -19
-32 5 -27 25 -66 26 -75 3 -3 -10 -13 -26 -21 -35 -8 -10 -12 -28 -10 -43 4
-16 1 -24 -6 -22 -18 6 -19 105 -1 133 22 34 86 34 120 -1z m-3033 -15 c27
-21 42 -56 27 -66 -5 -3 -9 -12 -9 -21 0 -19 -59 -73 -82 -73 -9 0 -30 12 -47
26 -26 21 -31 33 -31 69 0 35 5 48 26 64 34 26 84 27 116 1z m873 -14 c9 -45
3 -71 -15 -71 -10 0 -16 13 -18 39 -6 68 22 95 33 32z m85 -26 c0 -45 -4 -60
-14 -60 -17 0 -26 22 -26 60 0 38 9 60 26 60 10 0 14 -15 14 -60z m842 36 c16
-22 15 -24 -53 -94 -59 -62 -89 -85 -89 -68 0 2 -3 11 -6 19 -3 9 18 41 55 83
34 37 61 72 61 76 0 15 15 7 32 -16z m3062 -35 c27 -28 28 -51 2 -51 -19 0
-69 57 -62 69 12 18 31 12 60 -18z m-5327 -3 c-3 -8 -6 -5 -6 6 -1 11 2 17 5
13 3 -3 4 -12 1 -19z m5509 -5 c-10 -10 -19 5 -10 18 6 11 8 11 12 0 2 -7 1
-15 -2 -18z m-2069 -9 c6 -16 -22 -52 -33 -41 -9 9 5 57 17 57 5 0 12 -7 16
-16z m2023 6 c0 -5 -4 -10 -9 -10 -6 0 -13 5 -16 10 -3 6 1 10 9 10 9 0 16 -4
16 -10z m-3554 -25 c16 -16 24 -34 22 -48 -2 -18 -10 -23 -46 -25 -48 -4 -72
10 -72 40 0 59 52 77 96 33z m434 -10 c10 -12 6 -23 -24 -60 -40 -48 -46 -51
-64 -33 -18 18 -15 24 24 68 40 44 46 47 64 25z m-2359 -35 c10 -6 19 -17 19
-25 0 -31 54 -75 100 -83 26 -4 45 -13 44 -20 -1 -6 -2 -26 -2 -43 -2 -31 -3
-32 -42 -26 -92 12 -170 92 -170 175 0 34 15 41 51 22z m5279 -20 c0 -11 -42
-31 -49 -24 -2 2 2 10 9 19 14 17 40 20 40 5z m-670 -28 c19 -16 51 -38 71
-50 35 -21 79 -85 67 -97 -9 -9 -98 32 -126 58 -35 32 -74 117 -55 117 5 0 24
-13 43 -28z m-2972 -52 c3 -67 -6 -92 -34 -96 -48 -7 -46 82 4 139 8 9 18 17
21 17 3 0 7 -27 9 -60z m-1358 -18 c0 -31 -6 -43 -30 -60 -16 -12 -32 -22 -35
-22 -7 0 -6 105 2 113 3 4 19 7 35 7 26 0 28 -3 28 -38z m2150 -22 c0 -30 -5
-42 -21 -50 -29 -16 -46 -7 -51 29 -6 41 8 61 42 61 28 0 30 -2 30 -40z
m-1916 -1 c4 -24 2 -35 -11 -44 -10 -7 -21 -11 -25 -9 -4 2 -9 0 -13 -6 -10
-16 -98 -12 -123 6 -15 11 -22 25 -22 50 l0 34 94 0 94 0 6 -31z m286 -3 c0
-52 -20 -66 -98 -66 -76 0 -112 23 -112 72 l0 28 105 0 105 0 0 -34z m115 2
c-10 -45 -13 -48 -41 -48 -21 0 -24 4 -24 40 0 39 1 40 36 40 35 0 35 -1 29
-32z m345 3 c0 -38 -11 -44 -77 -46 -48 -2 -54 0 -59 21 -11 45 0 54 71 54
l65 0 0 -29z m246 -6 c3 -20 5 -37 3 -39 -2 -2 -43 -1 -91 2 l-88 5 0 33 0 34
85 0 84 0 7 -35z m799 24 c4 -5 4 -20 1 -33 -5 -19 -12 -23 -48 -23 -284 -4
-360 -6 -399 -12 -33 -6 -55 -4 -74 6 -21 12 -29 12 -41 2 -19 -16 -34 3 -34
44 l0 27 294 0 c196 0 297 -4 301 -11z m409 -5 c3 -9 6 -24 6 -35 0 -19 -7
-19 -117 -17 -104 3 -118 5 -121 21 -8 43 2 47 117 47 90 0 110 -3 115 -16z
m659 -5 c3 -12 3 -35 0 -50 -5 -25 -10 -29 -37 -29 -41 0 -56 16 -56 56 0 35
9 42 56 43 24 1 33 -4 37 -20z m-2493 -215 c30 -31 78 -68 105 -82 49 -26 55
-27 250 -30 l200 -3 55 28 c33 17 68 45 86 70 l32 41 5 -35 c7 -43 -3 -64 -46
-97 -49 -38 -102 -45 -337 -46 -177 -2 -222 1 -252 14 -67 29 -129 95 -157
169 -15 40 -2 33 59 -29z m-394 -290 l104 -96 0 -149 c0 -81 5 -160 10 -175
16 -41 -3 -57 -63 -51 -39 3 -56 11 -86 41 -74 72 -85 110 -89 294 -4 152 1
232 15 232 3 0 52 -43 109 -96z m870 16 c-4 -22 -1 -32 9 -36 8 -4 15 -17 15
-30 0 -25 -20 -30 -67 -18 -25 7 -31 24 -9 24 10 0 17 16 22 45 4 31 11 45 21
45 12 0 14 -7 9 -30z m4046 -110 c77 -65 81 -76 69 -230 -8 -111 -23 -154 -68
-196 -34 -32 -86 -32 -107 -2 -22 30 -20 77 4 138 17 43 20 74 20 201 0 83 4
149 8 147 5 -1 38 -28 74 -58z m-4041 -10 c11 -6 19 -21 19 -36 0 -21 -4 -25
-22 -22 -18 2 -24 11 -26 36 -4 35 0 37 29 22z m-521 -148 c0 -146 -31 -207
-101 -200 -26 2 -41 13 -67 48 l-34 45 5 105 c4 58 7 106 7 107 0 1 43 1 95 0
l95 -2 0 -103z m1210 16 c0 -46 -5 -101 -11 -123 -14 -51 -68 -105 -104 -105
-41 0 -92 36 -120 84 -22 37 -25 55 -25 134 l0 92 130 0 130 0 0 -82z m683 55
c3 -16 4 -63 2 -106 -5 -92 -31 -148 -81 -172 -44 -20 -65 -19 -104 8 -65 44
-75 67 -78 188 l-4 109 130 0 130 0 5 -27z m541 -85 c-1 -96 -4 -111 -25 -143
-31 -45 -80 -69 -127 -61 -44 7 -99 58 -112 106 -11 40 -14 193 -3 204 4 3 66
5 137 4 l131 -3 -1 -107z"/>
<path d="M1275 8890 c-3 -5 3 -10 14 -10 12 0 21 5 21 10 0 6 -6 10 -14 10 -8
0 -18 -4 -21 -10z"/>
<path d="M4127 8778 c-8 -28 -1 -38 27 -38 70 0 123 -50 135 -128 l8 -47 12
30 c27 65 -6 136 -80 172 -71 34 -96 37 -102 11z"/>
<path d="M4146 8620 c-27 -23 -55 -39 -63 -36 -22 9 -15 -20 13 -53 62 -74
191 -11 177 86 -3 18 -9 31 -13 28 -5 -3 -11 -1 -15 5 -13 21 -52 9 -99 -30z"/>
<path d="M1837 8603 c-3 -5 8 -8 24 -9 15 -1 26 3 23 7 -6 11 -41 12 -47 2z"/>
<path d="M1817 8437 c-11 -30 3 -47 39 -47 30 0 34 3 34 25 0 29 -17 33 -36 8
-12 -17 -13 -16 -22 6 -7 20 -10 21 -15 8z"/>
<path d="M1832 8328 c-23 -23 -13 -38 23 -38 22 0 35 5 35 13 0 16 -20 37 -35
37 -6 0 -16 -5 -23 -12z"/>
<path d="M1827 8225 c7 -36 27 -49 53 -35 27 14 21 34 -11 38 -13 2 -29 8 -35
13 -8 6 -10 2 -7 -16z"/>
<path d="M1835 8038 c-3 -8 -4 -61 -3 -119 3 -100 4 -104 26 -107 l24 -4 -4
119 c-3 103 -5 118 -21 121 -9 2 -19 -3 -22 -10z"/>
<path d="M3085 8560 c-3 -5 -1 -10 4 -10 6 0 11 5 11 10 0 6 -2 10 -4 10 -3 0
-8 -4 -11 -10z"/>
<path d="M8540 8490 c-94 -22 -108 -160 -20 -205 40 -21 71 -19 111 8 51 34
66 71 48 121 -22 62 -74 91 -139 76z m63 -51 c38 -53 -38 -134 -84 -88 -26 26
-24 55 6 84 30 30 59 32 78 4z"/>
<path d="M8550 8387 c0 -21 12 -28 27 -16 19 16 16 29 -7 29 -11 0 -20 -6 -20
-13z"/>
<path d="M7716 8505 c-3 -8 -1 -15 4 -15 6 0 10 7 10 15 0 8 -2 15 -4 15 -2 0
-6 -7 -10 -15z"/>
<path d="M2773 8333 c-19 -7 -16 -60 3 -67 22 -9 54 11 54 34 0 16 -29 42 -42
39 -2 0 -9 -3 -15 -6z"/>
<path d="M3240 8301 c0 -11 -11 -28 -25 -39 -31 -25 -32 -32 -2 -32 22 1 82
72 70 84 -14 14 -43 5 -43 -13z"/>
<path d="M3266 8253 c-6 -14 -5 -15 5 -6 7 7 10 15 7 18 -3 3 -9 -2 -12 -12z"/>
<path d="M1450 8309 c-10 -17 -9 -24 4 -37 21 -22 51 -4 51 29 0 33 -39 39
-55 8z"/>
<path d="M7542 8043 c2 -30 8 -39 25 -41 14 -2 23 3 28 17 8 27 -11 61 -36 61
-17 0 -20 -5 -17 -37z"/>
<path d="M7310 8056 c0 -2 7 -7 16 -10 8 -3 12 -2 9 4 -6 10 -25 14 -25 6z"/>
<path d="M1531 7994 c-7 -17 -9 -65 -4 -155 l6 -129 -146 0 c-124 0 -147 -2
-147 -15 0 -13 24 -15 160 -15 l160 0 0 164 c0 91 -4 167 -9 170 -4 3 -13 -6
-20 -20z"/>
<path d="M2245 8013 c-19 -19 -19 -34 0 -27 8 4 15 1 15 -5 0 -13 36 -15 44
-2 19 30 -34 60 -59 34z"/>
<path d="M3702 8013 c-7 -3 -19 -18 -27 -33 -13 -26 -13 -30 1 -44 21 -22 61
-20 74 3 14 27 13 47 -6 65 -16 17 -21 18 -42 9z"/>
<path d="M4644 7985 c-14 -37 26 -69 53 -43 12 12 13 20 4 37 -13 24 -49 28
-57 6z"/>
<path d="M8050 7985 c-15 -19 1 -65 23 -65 29 0 50 26 43 53 -7 31 -45 37 -66
12z"/>
<path d="M8820 7875 c-17 -21 -8 -50 17 -53 24 -4 48 30 39 54 -7 18 -40 18
-56 -1z"/>
<path d="M8800 7728 c1 -23 28 -50 47 -46 11 2 19 14 21 31 3 25 1 27 -32 27
-22 0 -36 -5 -36 -12z"/>
<path d="M4012 7868 c-8 -11 -9 -18 -3 -22 6 -4 8 -14 5 -24 -5 -15 -4 -15 6
1 6 10 10 27 8 39 -3 19 -4 20 -16 6z"/>
<path d="M7308 7723 c6 -2 18 -2 25 0 6 3 1 5 -13 5 -14 0 -19 -2 -12 -5z"/>
<path d="M8080 7450 c0 -5 5 -10 11 -10 5 0 7 5 4 10 -3 6 -8 10 -11 10 -2 0
-4 -4 -4 -10z"/>
<path d="M7119 7475 c-3 -2 -23 -7 -45 -11 -21 -3 -40 -10 -42 -15 -2 -5 -11
-9 -19 -9 -27 0 -117 -86 -146 -139 -71 -130 -27 -306 94 -375 33 -19 32 -18
-12 31 -64 69 -81 106 -87 189 -4 62 -1 79 23 133 53 117 155 178 284 169 73
-5 130 -30 175 -74 38 -38 79 -128 73 -160 -2 -13 -1 -42 3 -64 4 -22 4 -40 0
-40 -4 0 -10 19 -13 43 -12 87 -76 190 -137 222 -72 37 -184 27 -250 -23 -19
-15 -44 -32 -55 -37 -24 -13 -43 -84 -44 -167 -1 -50 3 -62 42 -119 53 -78
107 -109 187 -109 55 0 127 26 162 57 9 8 21 12 27 8 6 -3 8 0 5 8 -3 8 0 18
7 23 8 4 10 3 5 -4 -4 -8 0 -12 10 -12 14 0 10 -8 -17 -36 -40 -43 -10 -31 37
14 126 120 93 367 -60 457 -47 28 -192 56 -207 40z m122 -152 c13 -15 12 -16
-9 -10 -29 7 -111 -17 -144 -42 -33 -26 -54 -117 -38 -165 12 -39 32 -57 78
-76 42 -16 83 0 119 46 79 104 -30 227 -150 168 l-32 -15 33 30 c51 49 137 38
196 -25 21 -23 26 -38 26 -80 0 -45 -5 -58 -41 -103 -47 -59 -83 -81 -134 -81
-62 0 -123 45 -160 119 -36 72 11 197 88 232 55 24 149 26 168 2z m-51 -118
c15 -18 5 -35 -23 -35 -18 0 -19 -2 -7 -10 13 -8 12 -10 -3 -10 -30 0 -50 26
-37 50 13 23 52 27 70 5z"/>
<path d="M7000 7118 c0 -38 77 -113 126 -122 43 -9 59 0 18 10 -40 9 -114 71
-130 108 l-13 31 -1 -27z"/>
<path d="M6895 6894 c68 -67 182 -102 281 -88 l59 8 -100 6 c-101 6 -162 26
-235 77 -25 17 -25 17 -5 -3z"/>
<path d="M7323 6855 c-18 -8 -33 -16 -33 -19 0 -8 59 15 66 25 7 11 6 11 -33
-6z"/>
<path d="M2690 7247 c0 -13 46 -44 54 -36 2 2 0 14 -5 27 -9 24 -49 31 -49 9z"/>
<path d="M2588 7219 c-37 -21 -12 -85 29 -77 25 4 28 40 6 66 -14 17 -22 19
-35 11z"/>
<path d="M1100 6550 c8 -5 20 -10 25 -10 6 0 3 5 -5 10 -8 5 -19 10 -25 10 -5
0 -3 -5 5 -10z"/>
<path d="M1165 6530 c19 -8 83 -14 74 -6 -2 2 -24 6 -49 9 -30 4 -38 3 -25 -3z"/>
<path d="M3428 6679 c-5 -4 -8 -17 -6 -30 3 -22 6 -23 58 -19 162 14 420 -5
405 -30 -5 -9 19 -32 26 -25 6 5 7 -6 14 -155 8 -148 8 -150 34 -143 20 5 21
12 21 135 0 99 -4 136 -16 160 -13 24 -18 28 -26 17 -7 -10 -8 -8 -3 8 5 18
-2 27 -36 50 -46 30 -18 28 -355 36 -58 1 -110 -1 -116 -4z"/>
<path d="M2033 6833 c9 -2 25 -2 35 0 9 3 1 5 -18 5 -19 0 -27 -2 -17 -5z"/>
<path d="M1945 6505 c16 -7 36 -11 45 -10 8 2 87 4 175 6 119 1 147 4 110 9
-27 5 -120 8 -205 8 -136 0 -151 -1 -125 -13z"/>
<path d="M7622 6620 c0 -14 2 -19 5 -12 2 6 2 18 0 25 -3 6 -5 1 -5 -13z"/>
<path d="M7326 6545 c-3 -8 -1 -15 3 -15 5 0 11 7 15 15 3 8 1 15 -3 15 -5 0
-11 -7 -15 -15z"/>
<path d="M7330 6504 c0 -6 7 -19 16 -30 14 -18 14 -18 3 6 -14 31 -19 36 -19
24z"/>
<path d="M6967 6368 c-71 -172 -117 -291 -117 -303 0 -8 9 -15 20 -15 24 0 39
28 96 179 33 87 41 118 33 132 -11 22 -25 24 -32 7z"/>
<path d="M4608 5803 c6 -2 18 -2 25 0 6 3 1 5 -13 5 -14 0 -19 -2 -12 -5z"/>
<path d="M7410 6243 c-37 -34 -44 -91 -15 -123 28 -31 101 -28 137 7 85 82
-34 195 -122 116z m106 -28 c32 -49 -23 -104 -75 -75 -24 12 -29 68 -9 88 21
21 66 14 84 -13z"/>
<path d="M7388 5683 c7 -3 16 -2 19 1 4 3 -2 6 -13 5 -11 0 -14 -3 -6 -6z"/>
<path d="M5587 5893 c-4 -3 -7 -11 -7 -17 0 -6 5 -5 12 2 6 6 9 14 7 17 -3 3
-9 2 -12 -2z"/>
<path d="M3324 5926 c-29 -29 -34 -41 -34 -79 0 -37 6 -51 30 -75 46 -46 84
-50 134 -15 38 27 41 32 44 82 3 49 1 55 -33 87 -50 47 -94 47 -141 0z m115
-38 c33 -59 -28 -121 -83 -84 -21 13 -26 25 -26 56 0 45 18 61 65 57 20 -1 34
-10 44 -29z"/>
<path d="M3382 5868 c-17 -17 -15 -48 2 -48 18 0 32 38 19 51 -5 5 -14 4 -21
-3z"/>
<path d="M3348 5643 c6 -2 18 -2 25 0 6 3 1 5 -13 5 -14 0 -19 -2 -12 -5z"/>
<path d="M2486 5729 c-18 -26 -7 -54 24 -64 30 -10 52 13 48 49 -2 25 -8 32
-30 34 -18 2 -31 -4 -42 -19z"/>
<path d="M1941 5584 c0 -11 3 -14 6 -6 3 7 2 16 -1 19 -3 4 -6 -2 -5 -13z"/>
<path d="M1941 5544 c0 -11 3 -14 6 -6 3 7 2 16 -1 19 -3 4 -6 -2 -5 -13z"/>
<path d="M1636 5628 c-10 -14 -12 -27 -6 -38 26 -48 75 -52 99 -8 14 24 14 28
-3 47 -25 28 -70 27 -90 -1z"/>
<path d="M7160 5581 c-22 -43 -5 -81 37 -81 26 0 39 34 29 75 -8 31 -50 35
-66 6z"/>
<path d="M7309 5563 c-13 -16 -12 -17 4 -4 9 7 17 15 17 17 0 8 -8 3 -21 -13z"/>
<path d="M7402 5478 c-28 -28 -3 -84 34 -76 27 5 37 30 25 61 -11 29 -38 36
-59 15z"/>
<path d="M2975 5460 c-3 -5 -1 -10 4 -10 6 0 11 5 11 10 0 6 -2 10 -4 10 -3 0
-8 -4 -11 -10z"/>
<path d="M7683 5388 c-20 -28 -15 -66 11 -83 33 -22 58 -16 70 17 14 41 -6 78
-43 78 -16 0 -33 -6 -38 -12z"/>
<path d="M3905 5370 c-12 -20 6 -50 30 -50 15 0 26 7 30 20 9 27 -1 40 -30 40
-13 0 -27 -5 -30 -10z"/>
<path d="M6338 5313 c12 -2 32 -2 45 0 12 2 2 4 -23 4 -25 0 -35 -2 -22 -4z"/>
<path d="M3240 5329 c0 -5 5 -7 10 -4 6 3 10 8 10 11 0 2 -4 4 -10 4 -5 0 -10
-5 -10 -11z"/>
<path d="M1951 4516 c-16 -20 -10 -56 12 -70 27 -17 52 4 52 45 0 29 -4 34
-26 37 -14 2 -31 -4 -38 -12z"/>
<path d="M2132 4522 c-8 -6 -12 -23 -10 -43 3 -32 6 -34 38 -34 29 0 36 5 44
28 6 17 6 31 0 36 -14 15 -58 22 -72 13z"/>
<path d="M2314 4507 c-8 -34 11 -67 40 -67 31 0 48 22 44 57 -3 24 -8 28 -40
31 -33 3 -38 0 -44 -21z"/>
<path d="M2174 4764 c-8 -30 14 -58 38 -49 38 15 32 75 -7 75 -18 0 -26 -7
-31 -26z"/>
<path d="M7002 4912 c-91 -38 -124 -107 -95 -197 19 -62 37 -83 88 -106 53
-25 109 -24 154 2 82 48 110 127 73 211 -39 90 -131 127 -220 90z m134 -33
c26 -9 60 -55 69 -92 19 -72 -37 -159 -110 -173 -123 -23 -215 150 -127 239
43 43 99 52 168 26z"/>
<path d="M7066 4776 c-43 -40 -48 -76 -11 -76 34 0 65 33 65 69 0 44 -14 45
-54 7z"/>
<path d="M5307 4563 c-4 -3 -7 -15 -7 -26 0 -15 5 -18 23 -13 12 3 25 6 30 6
4 0 7 9 7 20 0 14 -7 20 -23 20 -13 0 -27 -3 -30 -7z"/>
<path d="M5352 4508 c-30 -30 -1 -69 33 -44 12 9 15 19 11 34 -8 24 -26 28
-44 10z"/>
<path d="M5815 4519 c-13 -20 4 -59 26 -59 25 0 34 22 19 49 -12 23 -35 28
-45 10z"/>
<path d="M5931 4483 c3 -18 -1 -34 -9 -29 -4 2 -8 -5 -8 -16 0 -19 1 -19 18 2
21 25 22 36 8 45 -6 4 -10 3 -9 -2z"/>
<path d="M2772 4379 c-19 -4 -39 -12 -45 -19 -10 -10 -8 -11 8 -5 55 22 84 18
115 -15 51 -55 30 -139 -40 -155 -36 -8 -89 28 -97 65 -8 40 -23 49 -23 13 0
-29 22 -68 50 -90 45 -36 128 -16 155 38 49 93 -22 190 -123 168z"/>
<path d="M2754 4305 c-9 -22 3 -62 20 -68 41 -16 71 18 55 61 -10 26 -66 32
-75 7z"/>
<path d="M2855 4115 c-23 -14 -33 -25 -23 -25 9 0 30 11 45 25 36 31 29 31
-22 0z"/>
<path d="M6400 3885 c0 -20 89 -21 116 0 17 13 13 14 -48 15 -54 0 -68 -3 -68
-15z"/>
<path d="M1265 3430 c3 -5 8 -10 11 -10 2 0 4 5 4 10 0 6 -5 10 -11 10 -5 0
-7 -4 -4 -10z"/>
<path d="M2030 3821 c-14 -27 -13 -46 5 -61 20 -17 62 -5 70 20 15 48 -51 85
-75 41z"/>
<path d="M2831 3844 c0 -11 3 -14 6 -6 3 7 2 16 -1 19 -3 4 -6 -2 -5 -13z"/>
<path d="M2248 3853 c6 -2 18 -2 25 0 6 3 1 5 -13 5 -14 0 -19 -2 -12 -5z"/>
<path d="M5540 3798 c0 -11 98 -10 104 1 3 5 -19 8 -49 7 -30 0 -55 -4 -55 -8z"/>
<path d="M7005 3690 c-42 -16 -62 -67 -42 -105 14 -28 27 -35 65 -35 72 0 109
87 56 129 -28 22 -46 25 -79 11z"/>
<path d="M7211 3474 c0 -11 3 -14 6 -6 3 7 2 16 -1 19 -3 4 -6 -2 -5 -13z"/>
<path d="M2508 3538 c2 -62 5 -119 7 -125 2 -7 16 -13 29 -13 l25 0 3 125 3
125 -35 0 -35 0 3 -112z"/>
<path d="M5615 3556 c-24 -37 -3 -76 41 -76 25 0 40 28 24 44 -5 5 -10 20 -10
33 0 31 -34 31 -55 -1z"/>
<path d="M6156 3585 c-18 -18 -11 -41 15 -56 16 -8 21 -5 30 15 21 46 -11 75
-45 41z"/>
<path d="M2063 3434 c-9 -24 10 -49 38 -49 27 0 37 28 19 50 -17 20 -49 19
-57 -1z"/>
<path d="M6540 3076 c0 -10 28 -13 41 -5 10 6 7 9 -13 9 -16 0 -28 -2 -28 -4z"/>
<path d="M6310 3400 c-23 -23 -24 -33 -10 -61 12 -21 50 -25 68 -7 17 17 15
54 -4 72 -20 21 -30 20 -54 -4z"/>
<path d="M1878 2368 c5 -5 16 -8 23 -6 8 3 3 7 -10 11 -17 4 -21 3 -13 -5z"/>
<path d="M1347 3289 c-43 -7 -107 -62 -107 -92 0 -17 2 -17 20 6 11 14 36 35
56 48 66 40 152 7 185 -72 15 -38 3 -51 -21 -22 -9 12 -20 20 -22 17 -3 -2
-11 2 -18 11 -18 22 -86 19 -121 -6 -30 -21 -65 -76 -55 -86 3 -3 21 6 40 21
19 14 45 30 58 35 30 11 61 -4 54 -27 -11 -34 -14 -92 -6 -92 16 0 -3 -42 -24
-49 -30 -12 -55 -2 -71 28 -9 17 -14 20 -15 10 0 -26 37 -66 67 -72 39 -7 71
8 85 40 17 39 17 39 33 17 23 -30 19 -81 -9 -109 -49 -49 -153 -41 -200 16
-27 32 -36 18 -11 -17 35 -51 148 -71 206 -37 34 20 69 86 69 130 0 17 -8 37
-20 48 -25 22 -27 43 -2 24 9 -7 14 -10 10 -5 -4 5 -2 18 4 29 26 50 -4 155
-55 187 -31 19 -85 27 -130 19z"/>
<path d="M6312 2915 c0 -16 2 -22 5 -12 2 9 2 23 0 30 -3 6 -5 -1 -5 -18z"/>
<path d="M6312 2855 c0 -16 2 -22 5 -12 2 9 2 23 0 30 -3 6 -5 -1 -5 -18z"/>
<path d="M4602 3211 c-21 -13 -11 -56 13 -56 15 0 20 7 20 29 0 31 -12 41 -33
27z"/>
<path d="M3492 3073 c-8 -13 -1 -26 31 -60 43 -46 77 -56 77 -24 0 11 -4 22
-10 26 -5 3 -7 13 -4 23 4 12 3 13 -3 4 -7 -9 -16 -5 -38 18 -33 35 -40 36
-53 13z"/>
<path d="M3514 2978 c-4 -7 -4 -10 1 -6 4 4 15 2 24 -5 14 -11 14 -10 2 6 -16
20 -18 21 -27 5z"/>
<path d="M3730 2931 c0 -10 9 -21 19 -24 11 -2 21 -15 24 -28 4 -24 4 -24 6
-1 0 12 6 22 12 22 6 0 8 -7 4 -17 -5 -15 -4 -16 7 -5 10 10 8 17 -10 35 -21
20 -23 21 -17 2 5 -15 4 -17 -3 -6 -6 8 -8 20 -5 28 3 8 -2 13 -16 13 -14 0
-21 -6 -21 -19z"/>
<path d="M3481 2904 c0 -11 3 -14 6 -6 3 7 2 16 -1 19 -3 4 -6 -2 -5 -13z"/>
<path d="M3501 2875 c1 -19 18 -51 18 -35 0 8 -4 22 -9 30 -5 8 -9 11 -9 5z"/>
<path d="M3643 2850 c-17 -20 -19 -30 -11 -38 23 -23 56 -13 78 22 11 19 26
37 33 40 7 3 -8 4 -33 4 -36 -1 -50 -7 -67 -28z"/>
<path d="M3813 2860 c-3 -11 -10 -17 -16 -13 -6 3 -7 1 -3 -6 4 -6 12 -9 17
-6 16 11 10 -12 -8 -26 -14 -12 -16 -12 -8 0 5 10 4 12 -3 7 -18 -11 -14 -26
7 -26 11 0 23 9 26 20 4 11 11 18 16 15 5 -4 9 -2 9 3 0 6 -7 13 -16 16 -9 4
-14 13 -10 21 3 8 3 15 0 15 -3 0 -8 -9 -11 -20z"/>
<path d="M3755 2810 c-10 -11 -15 -20 -12 -20 4 0 -10 -16 -31 -35 -20 -20
-30 -34 -22 -33 8 2 14 -2 13 -8 -1 -7 9 -24 22 -38 13 -14 29 -34 35 -43 11
-17 11 -17 6 0 -3 10 -6 38 -6 62 0 24 -6 50 -14 58 -12 11 -11 15 6 26 11 7
17 15 14 18 -3 4 -1 12 5 20 18 21 4 15 -16 -7z m-8 -94 c-4 -9 -11 -16 -17
-16 -7 0 -8 6 0 19 7 13 7 22 0 26 -5 3 -10 -1 -10 -10 0 -9 -5 -13 -10 -10
-8 5 -7 11 1 21 11 13 14 13 27 0 8 -8 12 -22 9 -30z"/>
<path d="M3507 2796 c-4 -10 -1 -13 8 -9 8 3 12 9 9 14 -7 12 -11 11 -17 -5z"/>
<path d="M3575 2790 c-3 -5 -13 -7 -23 -4 -14 5 -15 4 -2 -5 14 -10 7 -16 -13
-12 -5 1 -5 -3 -2 -9 4 -6 0 -19 -9 -28 -17 -19 -11 -34 19 -50 17 -9 28 -5
63 25 l43 36 -27 28 c-30 31 -39 35 -49 19z"/>
<path d="M3500 2759 c0 -5 5 -7 10 -4 6 3 10 8 10 11 0 2 -4 4 -10 4 -5 0 -10
-5 -10 -11z"/>
<path d="M3665 2681 c-3 -11 -17 -37 -32 -57 l-25 -38 27 -24 28 -23 26 25
c34 33 55 34 46 4 -6 -22 -6 -22 10 -4 23 30 -2 90 -52 123 -19 13 -22 12 -28
-6z"/>
<path d="M3840 2689 c0 -5 5 -7 10 -4 6 3 10 8 10 11 0 2 -4 4 -10 4 -5 0 -10
-5 -10 -11z"/>
<path d="M5805 3118 c-117 -42 -166 -175 -115 -312 22 -56 63 -102 122 -132
40 -21 148 -15 201 10 49 24 92 67 119 119 25 50 28 149 5 193 -23 45 -100
111 -143 123 -49 14 -149 13 -189 -1z m186 -34 c80 -40 122 -101 122 -179 1
-113 -89 -205 -203 -205 -122 0 -210 93 -210 222 0 61 31 131 68 156 48 31
166 35 223 6z"/>
<path d="M5930 3017 c0 -34 -20 -75 -50 -102 -25 -23 -44 -63 -41 -85 2 -8 12
-25 24 -38 29 -31 90 -28 95 6 3 17 -1 22 -21 22 -24 0 -67 37 -67 58 0 15 33
32 64 32 41 0 47 62 10 114 -14 20 -14 20 -14 -7z"/>
<path d="M5795 2880 c3 -5 8 -10 11 -10 2 0 4 5 4 10 0 6 -5 10 -11 10 -5 0
-7 -4 -4 -10z"/>
<path d="M5801 2794 c0 -11 3 -14 6 -6 3 7 2 16 -1 19 -3 4 -6 -2 -5 -13z"/>
<path d="M4014 3105 c-33 -51 10 -92 51 -47 29 32 30 36 9 56 -22 23 -41 20
-60 -9z"/>
<path d="M4115 3070 c3 -5 8 -10 11 -10 2 0 4 5 4 10 0 6 -5 10 -11 10 -5 0
-7 -4 -4 -10z"/>
<path d="M4180 3050 c0 -5 5 -10 11 -10 5 0 7 5 4 10 -3 6 -8 10 -11 10 -2 0
-4 -4 -4 -10z"/>
<path d="M4105 3040 c-4 -6 -2 -17 4 -23 6 -6 11 -15 11 -21 0 -5 -7 -1 -15
10 -9 12 -14 14 -15 6 0 -15 -20 -6 -20 9 0 6 5 7 12 3 7 -4 8 -3 4 4 -10 16
-38 2 -32 -15 3 -8 1 -11 -4 -8 -21 13 -8 -12 18 -35 l28 -25 21 31 c17 26 18
35 8 54 -9 16 -14 19 -20 10z"/>
<path d="M4130 3046 c0 -2 8 -10 18 -17 15 -13 16 -12 3 4 -13 16 -21 21 -21
13z"/>
<path d="M4227 2989 c7 -25 20 -33 29 -18 5 8 3 9 -6 4 -10 -6 -12 -4 -7 8 3
8 0 18 -7 20 -10 4 -12 -1 -9 -14z"/>
<path d="M4300 2663 c0 -5 5 -14 11 -20 16 -16 -23 -77 -67 -107 l-34 -23 20
-18 c20 -18 22 -18 55 -1 51 28 95 79 101 118 6 32 4 36 -22 42 -16 4 -37 9
-46 12 -10 3 -18 1 -18 -3z"/>
<path d="M4022 2584 c5 -25 35 -41 49 -27 9 9 9 16 -1 28 -17 21 -52 20 -48
-1z"/>
<path d="M3930 2505 c-16 -19 -6 -45 18 -45 19 0 46 43 35 54 -11 11 -40 6
-53 -9z"/>
<path d="M4013 2363 c9 -2 25 -2 35 0 9 3 1 5 -18 5 -19 0 -27 -2 -17 -5z"/>
<path d="M4110 2360 c-11 -8 -7 -9 15 -4 37 8 45 14 19 14 -10 0 -26 -5 -34
-10z"/>
<path d="M2043 2563 c-16 -6 -17 -37 -2 -64 10 -20 11 -20 30 -3 10 9 19 25
19 35 0 20 -28 39 -47 32z"/>
<path d="M2801 2534 c-25 -18 -27 -56 -5 -78 20 -21 37 -20 65 3 20 16 22 23
14 46 -13 36 -46 48 -74 29z"/>
<path d="M1556 2451 c-25 -27 -17 -55 16 -59 22 -3 29 2 34 22 13 52 -17 74
-50 37z"/>
<path d="M6846 8204 c-10 -25 -7 -33 16 -45 18 -10 24 -8 40 11 14 17 16 26 7
36 -16 19 -55 18 -63 -2z m49 -23 c-3 -6 -11 -11 -16 -11 -5 0 -4 6 3 14 14
16 24 13 13 -3z"/>
<path d="M6971 8206 c-11 -13 -5 -46 9 -46 4 0 12 10 19 23 l11 22 -6 -22 c-7
-29 12 -30 21 -2 11 34 -31 53 -54 25z"/>
<path d="M6067 5814 c-22 -22 9 -72 38 -60 11 4 13 11 5 31 -9 24 2 37 13 15
3 -6 4 -5 3 2 -3 14 -48 23 -59 12z"/>
<path d="M4087 4161 c-6 -26 6 -43 27 -35 11 4 16 14 13 25 -6 24 8 25 23 2
11 -17 11 -17 6 0 -3 10 -6 21 -6 23 0 2 -13 4 -29 4 -20 0 -30 -6 -34 -19z"/>
<path d="M4875 3610 c-17 -18 -17 -21 -1 -46 10 -14 20 -23 24 -19 4 3 0 10
-8 15 -12 8 -10 10 7 10 20 0 21 3 13 25 -8 20 -6 25 6 25 11 0 14 -6 10 -16
-3 -8 -2 -12 4 -9 6 3 10 -2 11 -12 0 -10 3 -13 5 -6 8 19 -15 53 -35 53 -10
0 -26 -9 -36 -20z"/>
<path d="M5623 2045 c-13 -9 -23 -24 -23 -34 0 -40 54 -55 83 -23 13 15 14 22
4 42 -15 31 -35 35 -64 15z m47 -14 c0 -21 -13 -41 -26 -41 -14 0 -19 31 -7
43 10 10 33 8 33 -2z"/>
<path d="M930 1753 c0 -6 8 -17 18 -24 16 -13 16 -13 2 6 -8 11 -16 22 -17 24
-2 2 -3 0 -3 -6z"/>
</g>
</svg>
